<svg width="56" height="56" viewBox="0 0 56 56" fill="none" xmlns="http://www.w3.org/2000/svg">
<path d="M14 16.3333H25.6667C26.2855 16.3333 26.879 16.5791 27.3166 17.0167C27.7542 17.4543 28 18.0477 28 18.6666C28 19.2854 27.7542 19.8789 27.3166 20.3165C26.879 20.7541 26.2855 20.9999 25.6667 20.9999H14C13.3812 20.9999 12.7877 20.7541 12.3501 20.3165C11.9125 19.8789 11.6667 19.2854 11.6667 18.6666C11.6667 18.0477 11.9125 17.4543 12.3501 17.0167C12.7877 16.5791 13.3812 16.3333 14 16.3333ZM30.3333 34.9999H42C42.6188 34.9999 43.2123 35.2457 43.6499 35.6833C44.0875 36.1209 44.3333 36.7144 44.3333 37.3332C44.3333 37.9521 44.0875 38.5456 43.6499 38.9832C43.2123 39.4207 42.6188 39.6666 42 39.6666H30.3333C29.7145 39.6666 29.121 39.4207 28.6834 38.9832C28.2458 38.5456 28 37.9521 28 37.3332C28 36.7144 28.2458 36.1209 28.6834 35.6833C29.121 35.2457 29.7145 34.9999 30.3333 34.9999ZM14 25.6666H42C42.6188 25.6666 43.2123 25.9124 43.6499 26.35C44.0875 26.7876 44.3333 27.3811 44.3333 27.9999C44.3333 28.6188 44.0875 29.2122 43.6499 29.6498C43.2123 30.0874 42.6188 30.3332 42 30.3332H14C13.3812 30.3332 12.7877 30.0874 12.3501 29.6498C11.9125 29.2122 11.6667 28.6188 11.6667 27.9999C11.6667 27.3811 11.9125 26.7876 12.3501 26.35C12.7877 25.9124 13.3812 25.6666 14 25.6666Z" fill="#E5E5E5"/>
</svg>
