<svg width="272" height="256" viewBox="0 0 272 256" fill="none" xmlns="http://www.w3.org/2000/svg">
<g clip-path="url(#clip0_11_810)">
<path d="M117.625 0H96.375C91.1973 0 87 4.19733 87 9.375V30.625C87 35.8027 91.1973 40 96.375 40H117.625C122.803 40 127 35.8027 127 30.625V9.375C127 4.19733 122.803 0 117.625 0Z" fill="#E14E1D"/>
<path d="M94.5 5.9375L95.8453 21.0302H113.144L112.563 27.5036L106.994 29.0095L101.434 27.5058L101.063 23.3492H96.0531L96.7695 31.3619L106.993 34.2013L117.228 31.3619L118.601 16.0398H100.41L99.9533 10.9289H119.053L119.5 5.9375H94.5Z" fill="white"/>
<path d="M107 5.9375H94.5L95.8453 21.0302H107V16.0398H100.41L99.9533 10.9289H107V5.9375ZM107 29.0073L106.994 29.0095L101.434 27.5058L101.063 23.3492H96.0531L96.7695 31.3619L106.993 34.2013L107 34.1991L107 29.0073Z" fill="#EBEBEB"/>
</g>
<g clip-path="url(#clip1_11_810)">
<path d="M175.625 0H154.375C149.197 0 145 4.19733 145 9.375V30.625C145 35.8027 149.197 40 154.375 40H175.625C180.803 40 185 35.8027 185 30.625V9.375C185 4.19733 180.803 0 175.625 0Z" fill="#0277BD"/>
<path d="M153.399 16.0392L153.846 21.0302H165.015V16.0392H153.399ZM165.015 5.9375H152.5L152.954 10.9284H165.015V5.9375ZM165.015 34.1939V29.0013L164.993 29.007L159.435 27.5062L159.079 23.5256H154.069L154.768 31.3622L164.992 34.2003L165.015 34.1939Z" fill="#EBEBEB"/>
<path d="M171.143 21.0302L170.564 27.503L164.998 29.0055V34.1978L175.229 31.3622L175.304 30.5189L176.477 17.3795L176.599 16.0392L177.5 5.9375H164.998V10.9284H172.03L171.576 16.0392H164.998V21.0302H171.143Z" fill="white"/>
</g>
<g clip-path="url(#clip2_11_810)">
<path d="M30.625 72H9.375C4.19733 72 0 76.1973 0 81.375V102.625C0 107.803 4.19733 112 9.375 112H30.625C35.8027 112 40 107.803 40 102.625V81.375C40 76.1973 35.8027 72 30.625 72Z" fill="#F0DB4F"/>
<path d="M10.5175 105.427L13.5784 103.574C14.1691 104.621 14.7062 105.507 15.9948 105.507C17.23 105.507 18.0087 105.024 18.0087 103.145V90.3639H21.7678V103.198C21.7678 107.091 19.4856 108.863 16.1559 108.863C13.1489 108.863 11.4034 107.306 10.5173 105.427M23.8095 105.024L26.8702 103.252C27.6759 104.568 28.7231 105.534 30.5756 105.534C32.1333 105.534 33.1264 104.756 33.1264 103.682C33.1264 102.393 32.1061 101.936 30.3877 101.185L29.4481 100.782C26.7361 99.6274 24.937 98.1774 24.937 95.1164C24.937 92.2971 27.0852 90.1489 30.4416 90.1489C32.8312 90.1489 34.5497 90.9814 35.7847 93.1563L32.858 95.0358C32.2134 93.8813 31.5156 93.4249 30.4416 93.4249C29.3406 93.4249 28.6425 94.123 28.6425 95.0358C28.6425 96.1635 29.3406 96.62 30.9516 97.3183L31.8912 97.721C35.0864 99.0905 36.8855 100.486 36.8855 103.628C36.8855 107.011 34.2273 108.864 30.6562 108.864C27.1658 108.864 24.9103 107.199 23.8095 105.024Z" fill="#323330"/>
</g>
<path d="M78 89.75C79.6051 89.75 80.9063 88.4488 80.9063 86.8437C80.9063 85.2387 79.6051 83.9375 78 83.9375C76.3949 83.9375 75.0938 85.2387 75.0938 86.8437C75.0938 88.4488 76.3949 89.75 78 89.75Z" fill="#61DAFB"/>
<path d="M78 97.5312C80.2812 99.75 82.5313 101.062 84.3438 101.062C84.9375 101.062 85.5 100.938 85.9688 100.656C87.5938 99.7188 88.1875 97.375 87.625 94.0312C87.5313 93.4375 87.4062 92.8438 87.25 92.2188C87.875 92.0312 88.4375 91.8438 89 91.6562C92.1562 90.4375 93.9062 88.75 93.9062 86.9063C93.9062 85.0313 92.1562 83.3438 89 82.1562C88.4375 81.9375 87.875 81.75 87.25 81.5938C87.4062 80.9688 87.5313 80.375 87.625 79.7812C88.1563 76.375 87.5625 74 85.9375 73.0625C85.4688 72.7813 84.9062 72.6562 84.3125 72.6562C82.5312 72.6562 80.25 73.9687 77.9688 76.1875C75.7188 73.9687 73.4688 72.6562 71.6562 72.6562C71.0625 72.6562 70.5 72.7813 70.0312 73.0625C68.4062 74 67.8125 76.3438 68.375 79.6875C68.4688 80.2812 68.5938 80.875 68.75 81.5C68.125 81.6875 67.5625 81.875 67 82.0625C63.8437 83.2812 62.0938 84.9688 62.0938 86.8125C62.0938 88.6875 63.8437 90.375 67 91.5625C67.5625 91.7812 68.125 91.9688 68.75 92.125C68.5938 92.75 68.4688 93.3438 68.375 93.9375C67.8438 97.2812 68.4375 99.6562 70.0312 100.562C70.5 100.844 71.0625 100.969 71.6562 100.969C73.4688 101.031 75.7188 99.7188 78 97.5312ZM76.25 93.3125C76.8125 93.3438 77.4063 93.3438 78 93.3438C78.5938 93.3438 79.1875 93.3438 79.75 93.3125C79.1875 94.0625 78.5938 94.75 78 95.4062C77.4063 94.75 76.8125 94.0625 76.25 93.3125ZM72.375 90.0938C72.6875 90.625 72.9688 91.125 73.3125 91.625C72.3438 91.5 71.4375 91.3438 70.5625 91.1562C70.8438 90.3125 71.1562 89.4375 71.5312 88.5625C71.7812 89.0625 72.0625 89.5938 72.375 90.0938ZM70.5625 82.5625C71.4375 82.375 72.3438 82.2188 73.3125 82.0938C73 82.5938 72.6875 83.0938 72.375 83.625C72.0625 84.1563 71.7812 84.6563 71.5312 85.1875C71.125 84.2813 70.8125 83.4062 70.5625 82.5625ZM72.2812 86.8438C72.6875 86 73.125 85.1563 73.625 84.3125C74.0938 83.5 74.625 82.6875 75.1563 81.875C76.0938 81.8125 77.0313 81.7812 78 81.7812C79 81.7812 79.9375 81.8125 80.8438 81.875C81.4062 82.6875 81.9062 83.5 82.375 84.3125C82.875 85.1563 83.3125 86 83.7188 86.8438C83.3125 87.6875 82.875 88.5312 82.375 89.375C81.9062 90.1875 81.375 91 80.8438 91.8125C79.9062 91.875 78.9688 91.9062 78 91.9062C77 91.9062 76.0625 91.875 75.1563 91.8125C74.5938 91 74.0938 90.1875 73.625 89.375C73.125 88.5312 72.6875 87.6875 72.2812 86.8438ZM84.5 85.1562L83.6562 83.5938C83.3438 83.0625 83.0625 82.5625 82.7188 82.0625C83.6875 82.1875 84.5938 82.3438 85.4688 82.5312C85.1875 83.4062 84.875 84.2812 84.5 85.1562ZM84.5 88.5313C84.875 89.4062 85.1875 90.2812 85.4688 91.125C84.5938 91.3125 83.6875 91.4688 82.7188 91.5938C83.0312 91.0938 83.3438 90.5938 83.6562 90.0625C83.9375 89.5938 84.2188 89.0625 84.5 88.5313ZM85.2188 99.375C84.9688 99.5312 84.6562 99.5938 84.3125 99.5938C82.7812 99.5938 80.875 98.3438 79 96.4688C79.9062 95.5 80.7812 94.4063 81.6562 93.1875C83.125 93.0625 84.5312 92.8438 85.8438 92.5312C86 93.0938 86.0938 93.6562 86.1875 94.2188C86.625 96.875 86.2812 98.7812 85.2188 99.375ZM86.8438 82.9063C90.3438 83.9063 92.4375 85.4375 92.4375 86.8438C92.4375 88.0625 91 89.2813 88.4688 90.25C87.9688 90.4375 87.4063 90.625 86.8438 90.7812C86.4375 89.5 85.9375 88.1875 85.3125 86.8438C85.9375 85.5 86.4688 84.1875 86.8438 82.9063ZM84.3438 74.0938C84.6875 74.0938 84.9688 74.1562 85.25 74.3125C86.2812 74.9062 86.6563 76.7812 86.2188 79.4688C86.125 80 86 80.5625 85.875 81.1562C84.5625 80.875 83.1563 80.6562 81.6875 80.5C80.8438 79.2812 79.9375 78.1875 79.0313 77.2188C80.9063 75.375 82.8125 74.0938 84.3438 74.0938ZM79.75 80.375C79.1875 80.3437 78.5938 80.3438 78 80.3438C77.4063 80.3438 76.8125 80.3437 76.25 80.375C76.8125 79.625 77.4063 78.9375 78 78.2812C78.5938 78.9375 79.1875 79.6562 79.75 80.375ZM70.7812 74.3125C71.0312 74.1562 71.3438 74.0938 71.6875 74.0938C73.2188 74.0938 75.125 75.3438 77 77.2188C76.0937 78.1875 75.2187 79.2812 74.3437 80.5C72.875 80.625 71.4688 80.8438 70.1562 81.1562C70 80.5937 69.9062 80.0312 69.8125 79.4688C69.375 76.8125 69.7188 74.9375 70.7812 74.3125ZM69.1562 90.7812C65.6563 89.7812 63.5625 88.25 63.5625 86.8438C63.5625 85.625 65 84.4062 67.5312 83.4375C68.0312 83.25 68.5938 83.0625 69.1562 82.9063C69.5625 84.1875 70.0625 85.5 70.6875 86.8438C70.0625 88.1875 69.5312 89.5312 69.1562 90.7812ZM69.8125 94.2188C69.9062 93.6875 70.0313 93.125 70.1562 92.5312C71.4688 92.8125 72.875 93.0313 74.3437 93.1875C75.1875 94.4063 76.0937 95.5 77 96.4688C75.125 98.3125 73.2188 99.5938 71.6875 99.5938C71.3438 99.5938 71.0625 99.5312 70.7812 99.375C69.7188 98.7812 69.375 96.875 69.8125 94.2188ZM68.5 107.094C69.1875 106.25 69.2188 105.312 68.8438 104.375C68.4688 103.438 67.6875 103 66.7188 102.969C65.5625 102.938 64.375 102.969 63.2188 102.969H63V111.062H63.9375V108H65.4062C65.5938 108 65.75 108.062 65.8438 108.219L67.7188 111.125C67.75 111.188 67.8438 111.281 67.9062 111.281H69.125C68.375 110.125 67.6562 109.031 66.9062 107.906C67.5625 107.812 68.125 107.594 68.5 107.094ZM63.9375 107.031V103.938H64.2812C65 103.938 65.75 103.906 66.4688 103.969C67.3125 104 67.9062 104.656 67.9062 105.5C67.9062 106.344 67.2187 107 66.375 107.031C65.625 107.062 64.875 107.031 63.9375 107.031ZM76.0312 107.438C75.5312 105.25 73.5312 104.688 72 105.375C70.8125 105.906 70.2812 106.938 70.25 108.219C70.2188 109.188 70.5 110.062 71.25 110.719C72.0938 111.469 73.125 111.562 74.1875 111.375C74.7812 111.25 75.3125 110.969 75.7188 110.531C75.5625 110.312 75.4062 110.094 75.25 109.906C74.375 110.656 73.4063 110.906 72.3438 110.406C71.6563 110.062 71.3125 109.219 71.25 108.594H76.0938V108.188C76.125 107.906 76.0938 107.656 76.0312 107.438ZM71.3125 107.938C71.2187 107 72.1562 106 73.1875 106C74.375 105.969 75.125 106.688 75.1563 107.938H71.3125ZM80.9063 105.219C80.4375 105.125 79.9375 105.094 79.4688 105.125C78.7188 105.188 78.0625 105.531 77.5312 106.094C77.6875 106.312 77.8125 106.531 78 106.781C78.0625 106.719 78.125 106.656 78.1875 106.625C78.6875 106.156 79.2813 105.906 80 105.969C80.5625 106 81.0938 106.188 81.25 106.75C81.375 107.188 81.3438 107.656 81.375 108.125C81.2813 108.125 81.25 108.094 81.2188 108.062C80.4688 107.438 79.625 107.312 78.7188 107.531C77.875 107.75 77.3438 108.406 77.2812 109.25C77.2187 110.219 77.6562 110.938 78.5 111.281C79.0312 111.5 79.625 111.5 80.1875 111.375C80.625 111.281 80.8125 111.031 81.4375 110.688V111.094H82.3125C82.3125 109.844 82.3438 108.312 82.3125 106.875C82.3125 105.969 81.7813 105.406 80.9063 105.219ZM81.3438 109.156C81.3125 109.25 81.3438 109.344 81.3438 109.438C81.3438 110.094 81.1875 110.312 80.5625 110.562C80.125 110.719 79.6563 110.781 79.1875 110.625C78.6563 110.469 78.2812 110 78.2812 109.469C78.25 108.938 78.5938 108.406 79.125 108.25C79.8438 108 80.5 108.156 81.0938 108.594C81.2813 108.75 81.4062 108.906 81.3438 109.156ZM86.2188 106.062C87.0313 105.812 87.7812 105.969 88.3438 106.656L88.4375 106.719C88.6562 106.531 88.8438 106.344 89.0938 106.125C89 106.031 88.9688 105.969 88.9062 105.875C88 104.906 86.2188 104.781 85.125 105.562C83.5938 106.688 83.625 108.875 84.375 110.031C85.0938 111.125 86.125 111.5 87.3438 111.344C88.0625 111.25 88.6562 110.906 89.125 110.312C88.9062 110.125 88.6875 109.938 88.4688 109.719C88.4062 109.781 88.375 109.812 88.3438 109.875C87.5 110.812 86.0938 110.719 85.3438 109.719C84.9062 109.125 84.8125 108.438 84.9375 107.75C85 106.969 85.4063 106.344 86.2188 106.062ZM92.7188 110.312C92.6562 110.344 92.625 110.375 92.625 110.375C92.375 110.562 92.125 110.594 91.8438 110.5C91.5625 110.375 91.5312 110.125 91.5 109.875V106.312C91.5 106.25 91.5 106.375 91.5313 106.062H92.7188V105.125H91.4688V103.562H90.5312V105.25H89.7188C89.6562 105.25 89.5625 105.312 89.5625 105.375C89.5312 105.594 89.5625 105.75 89.5625 106.062H90.5625V110.062C90.5625 110.562 90.6875 111 91.125 111.25C91.5938 111.531 92.5 111.469 92.9062 111.125C92.9688 111.094 93 110.969 93 110.938C92.9062 110.75 92.8125 110.531 92.7188 110.312Z" fill="#61DAFB"/>
<g clip-path="url(#clip3_11_810)">
<path d="M146.625 72H125.375C120.197 72 116 76.1973 116 81.375V102.625C116 107.803 120.197 112 125.375 112H146.625C151.803 112 156 107.803 156 102.625V81.375C156 76.1973 151.803 72 146.625 72Z" fill="#F4F2ED"/>
<path d="M121.352 81.5508L135.895 76.375L150.82 81.4706L148.408 100.703L135.895 107.625L123.584 100.793L121.352 81.5508Z" fill="#E23237"/>
<path d="M150.82 81.4708L135.895 76.375V107.625L148.408 100.703L150.82 81.4708Z" fill="#B52E31"/>
<path d="M135.917 80.0273L126.855 100.184L130.236 100.115L132.062 95.5606H140.168L142.152 100.15L145.377 100.219L135.917 80.0273ZM135.939 86.498L139.006 92.9014H133.266L135.948 86.498H135.939Z" fill="white"/>
</g>
<g clip-path="url(#clip4_11_810)">
<path d="M177.125 72H210.875C212.601 72 214 73.3991 214 75.125V108.875C214 110.601 212.601 112 210.875 112H177.125C175.399 112 174 110.601 174 108.875V75.125C174 73.3991 175.399 72 177.125 72Z" fill="#3178C6"/>
<path d="M197.518 103.324V107.64C198.22 108 199.05 108.269 200.009 108.449C200.967 108.629 201.977 108.719 203.039 108.719C204.074 108.719 205.057 108.62 205.988 108.422C206.919 108.224 207.736 107.898 208.438 107.444C209.14 106.99 209.695 106.397 210.105 105.664C210.514 104.931 210.719 104.026 210.719 102.947C210.719 102.165 210.602 101.479 210.368 100.89C210.136 100.305 209.793 99.7713 209.355 99.3189C208.915 98.8603 208.386 98.4491 207.77 98.0848C207.153 97.7208 206.458 97.3769 205.684 97.0533C205.117 96.8194 204.609 96.5925 204.159 96.3722C203.709 96.1519 203.327 95.9272 203.012 95.6978C202.697 95.4686 202.454 95.2258 202.283 94.9695C202.112 94.7133 202.027 94.4234 202.027 94.0997C202.027 93.803 202.103 93.5356 202.256 93.2973C202.409 93.0591 202.625 92.8545 202.904 92.6838C203.183 92.5128 203.525 92.3803 203.93 92.2858C204.335 92.1914 204.785 92.1442 205.279 92.1442C205.639 92.1442 206.02 92.1712 206.42 92.2252C206.82 92.2791 207.223 92.3622 207.628 92.4747C208.032 92.5866 208.426 92.7286 208.809 92.8995C209.18 93.0639 209.534 93.2625 209.868 93.4928V89.4605C209.212 89.2088 208.494 89.0222 207.716 88.9008C206.937 88.7794 206.044 88.7188 205.036 88.7188C204.011 88.7188 203.039 88.8289 202.121 89.0492C201.203 89.2694 200.396 89.6133 199.698 90.0808C199.001 90.5484 198.45 91.1441 198.045 91.8678C197.64 92.5916 197.438 93.4569 197.438 94.4639C197.438 95.7495 197.809 96.8464 198.551 97.7545C199.293 98.6625 200.42 99.4312 201.932 100.061C202.49 100.288 203.044 100.526 203.592 100.775C204.105 101.009 204.548 101.252 204.922 101.504C205.295 101.755 205.59 102.03 205.806 102.326C206.022 102.623 206.13 102.96 206.13 103.338C206.131 103.61 206.062 103.877 205.927 104.113C205.792 104.351 205.588 104.558 205.313 104.734C205.039 104.909 204.697 105.046 204.287 105.145C203.878 105.244 203.399 105.293 202.85 105.293C201.914 105.293 200.987 105.129 200.07 104.801C199.152 104.473 198.301 103.981 197.518 103.324ZM190.325 92.5847H195.875V89.0312H180.406V92.5847H185.929V108.406H190.325V92.5847Z" fill="white"/>
</g>
<g clip-path="url(#clip5_11_810)">
<path d="M234.305 97.2919C233.484 94.7369 233.249 92.0391 233.721 89.2635C233.926 88.1122 234.243 87.0075 234.589 85.8881C234.589 85.8881 236.766 78.7435 244.131 75.4781C244.131 75.4781 246.67 74.1375 250.488 74.0438C250.488 74.0438 249.968 73.5385 249.636 73.3175C247.838 72.1188 245.157 71.7244 243.532 73.4128C243.043 73.9169 242.632 74.4697 242.176 74.9741C241.655 75.5416 241.023 76.0153 240.298 76.2825C239.667 76.5194 239.036 76.4719 238.39 76.5828C237.728 76.6928 237.049 76.9297 236.513 77.3556C235.929 77.8294 235.693 78.4591 235.63 79.1853C235.567 79.7531 235.583 80.3366 235.551 80.9041C235.472 82.5766 234.936 83.0491 233.737 83.9803C233.233 84.3588 232.807 84.8628 232.491 85.4C231.545 87.0713 233.059 88.8056 233.138 90.4941C233.154 90.841 233.122 91.1875 232.996 91.5194C232.869 91.8819 232.618 92.1188 232.413 92.4178C232.128 92.8125 231.939 93.286 232.019 93.7741C232.097 94.2638 232.349 94.7213 232.586 95.1475C233.044 95.9044 233.612 96.5819 234.211 97.2288C234.243 97.2288 234.273 97.2603 234.305 97.2922" fill="#E32186"/>
<path d="M264.4 103.347C268.028 101.77 269.573 99.0415 269.573 99.0415C272.965 94.42 271.813 89.5469 271.813 89.5469C269.653 94.2465 267.68 95.5406 267.68 95.5406C272.996 87.4484 267.712 82.5597 267.712 82.5597C269.872 87.1653 267.002 92.7794 267.002 92.7794C264.589 97.8587 261.166 99.6728 261.166 99.6728C264.983 100.382 267.791 97.8112 267.791 97.8112C262.317 103.726 256.387 103.442 256.387 103.442C258.88 106.234 262.618 105.997 262.618 105.997C257.729 107.148 253.139 105.524 249.369 102.385C248.655 101.8 247.981 101.168 247.351 100.493C247.351 100.493 246.783 99.8937 246.672 99.7362L246.656 99.7206C246.578 102.638 249.621 105.35 249.621 105.35C245.804 103.773 244.053 100.35 244.053 100.35C244.053 100.35 241.482 95.9659 243.344 90.9669C245.204 85.9669 250.836 84.8937 250.836 84.8937C255.489 87.15 259.432 87.859 259.432 87.859C267.744 89.2469 267.271 85.1784 267.271 85.1784C267.349 81.6762 262.066 77.9544 262.066 77.9544C252.65 70.9669 244.133 75.4775 244.133 75.4775C236.767 78.7428 234.591 85.8875 234.591 85.8875C234.244 87.0069 233.928 88.1115 233.723 89.2625C232.918 93.9478 234.133 98.379 236.767 102.323C240.867 108.442 247.524 110.556 247.524 110.556C257.381 113.899 264.116 108.978 264.116 108.978C270.315 104.719 271.561 99.7987 271.561 99.7987C266.561 103.711 264.4 103.347 264.4 103.347L264.4 103.347ZM256.703 80.3353C256.815 80.3349 256.926 80.3566 257.03 80.3993C257.133 80.442 257.227 80.5048 257.307 80.584C257.386 80.6633 257.448 80.7574 257.491 80.861C257.533 80.9645 257.555 81.0755 257.554 81.1875C257.555 81.2993 257.533 81.4101 257.49 81.5136C257.448 81.617 257.385 81.7109 257.306 81.79C257.227 81.8691 257.133 81.9317 257.03 81.9743C256.926 82.0169 256.815 82.0386 256.703 82.0381C256.591 82.0387 256.481 82.0171 256.377 81.9746C256.273 81.932 256.179 81.8694 256.1 81.7903C256.021 81.7113 255.958 81.6173 255.915 81.5138C255.873 81.4103 255.851 81.2994 255.851 81.1875C255.851 81.0754 255.872 80.9644 255.915 80.8607C255.958 80.7571 256.02 80.6629 256.1 80.5837C256.179 80.5044 256.273 80.4417 256.377 80.3991C256.48 80.3564 256.591 80.3348 256.703 80.3353Z" fill="url(#paint0_linear_11_810)"/>
<path d="M267.253 85.1628C267.331 81.6606 262.048 77.9388 262.048 77.9388C252.632 70.9672 244.115 75.4778 244.115 75.4778C236.749 78.7431 234.573 85.8878 234.573 85.8878C234.147 87.1025 233.768 88.9641 233.768 88.9641C233.31 91.2981 233.515 93.4588 233.515 93.4588C233.705 95.5253 234.162 96.9135 234.162 96.9135C234.636 98.3953 234.856 98.8531 234.856 98.8531C234.841 98.8053 234.762 98.4588 234.762 98.4588C234.762 98.4588 234.099 95.2728 234.714 92.2125C234.714 92.2125 235.25 89.0266 237.428 86.5669C237.428 86.5669 240.961 81.535 247.538 83.5066C247.538 83.5066 248.958 84.0119 249.446 84.2635C249.935 84.5003 250.786 84.8628 250.786 84.8628C255.439 87.1188 259.382 87.8278 259.382 87.8278C267.726 89.2316 267.253 85.1631 267.253 85.1631L267.253 85.1628ZM256.701 82.055C256.589 82.0556 256.478 82.034 256.375 81.9914C256.271 81.9489 256.177 81.8863 256.098 81.8071C256.019 81.728 255.956 81.634 255.913 81.5305C255.87 81.427 255.849 81.316 255.849 81.2041C255.849 81.092 255.87 80.981 255.913 80.8773C255.955 80.7737 256.018 80.6795 256.097 80.6003C256.177 80.5211 256.271 80.4583 256.374 80.4157C256.478 80.373 256.589 80.3514 256.701 80.3519C256.813 80.3515 256.924 80.3732 257.028 80.4159C257.131 80.4586 257.225 80.5214 257.304 80.6006C257.383 80.6799 257.446 80.774 257.489 80.8776C257.531 80.9811 257.553 81.0921 257.552 81.2041C257.553 81.316 257.531 81.4268 257.488 81.5303C257.446 81.6337 257.383 81.7277 257.304 81.8068C257.225 81.8859 257.131 81.9486 257.027 81.9912C256.924 82.0338 256.813 82.0555 256.701 82.055Z" fill="url(#paint1_radial_11_810)"/>
<path d="M251.308 78.8225L245.929 77.15C245.898 77.15 245.74 77.0706 245.456 77.15C245.456 77.15 242.285 77.9547 242.838 79.6891C242.838 79.6891 243.169 80.7781 244.068 81.8341L249.982 81.5506L251.308 78.8225Z" fill="url(#paint2_linear_11_810)"/>
</g>
<g clip-path="url(#clip6_11_810)">
<path d="M59.625 144H38.375C33.1973 144 29 148.197 29 153.375V174.625C29 179.803 33.1973 184 38.375 184H59.625C64.8027 184 69 179.803 69 174.625V153.375C69 148.197 64.8027 144 59.625 144Z" fill="#F4F2ED"/>
<path d="M47.7309 148.862C48.4995 148.422 49.5005 148.42 50.2683 148.862C54.1311 151.045 57.9952 153.224 61.8573 155.408C62.5839 155.817 63.0697 156.626 63.0623 157.463V170.595C63.0678 171.466 62.5339 172.294 61.7675 172.694C57.9173 174.865 54.0691 177.038 50.2195 179.209C49.4353 179.657 48.4142 179.623 47.6542 179.138C46.5 178.468 45.3438 177.803 44.1894 177.134C43.9534 176.993 43.6875 176.882 43.5209 176.653C43.6683 176.454 43.9316 176.43 44.1455 176.343C44.6272 176.19 45.0698 175.944 45.5123 175.705C45.6244 175.629 45.7609 175.658 45.8683 175.726C46.8553 176.292 47.8338 176.875 48.8241 177.435C49.0353 177.557 49.2492 177.395 49.4298 177.295C53.208 175.159 56.9908 173.032 60.7684 170.896C60.9084 170.829 60.9858 170.68 60.9744 170.527C60.977 166.195 60.975 161.862 60.9758 157.53C60.9917 157.356 60.8911 157.196 60.7338 157.125C56.897 154.964 53.062 152.8 49.2259 150.639C49.1595 150.593 49.0808 150.569 49.0001 150.569C48.9195 150.568 48.8407 150.593 48.7741 150.638C44.9378 152.8 41.1038 154.966 37.2675 157.127C37.1108 157.198 37.0056 157.355 37.0242 157.53C37.025 161.862 37.0242 166.195 37.0242 170.527C37.0176 170.602 37.034 170.677 37.0713 170.742C37.1087 170.808 37.1651 170.86 37.233 170.892C38.2566 171.473 39.2816 172.049 40.3059 172.628C40.8831 172.938 41.5916 173.123 42.2275 172.885C42.7884 172.683 43.1817 172.111 43.1711 171.515C43.1764 167.208 43.1684 162.901 43.175 158.595C43.1609 158.404 43.3423 158.246 43.5283 158.264C44.0202 158.26 44.5127 158.257 45.0045 158.265C45.2098 158.26 45.3511 158.466 45.3258 158.659C45.3238 162.993 45.3311 167.327 45.3225 171.661C45.3238 172.816 44.8492 174.073 43.7808 174.638C42.4647 175.32 40.8378 175.175 39.5375 174.522C38.4119 173.96 37.3375 173.297 36.2319 172.695C35.4634 172.297 34.9322 171.466 34.9377 170.595V157.463C34.9295 156.608 35.4348 155.785 36.1838 155.382C40.0333 153.21 43.8822 151.035 47.7309 148.862Z" fill="#81CD39"/>
<path d="M51.0894 157.959C52.7683 157.85 54.5656 157.895 56.0764 158.722C57.2462 159.355 57.8947 160.686 57.9153 161.985C57.8826 162.16 57.6994 162.257 57.532 162.245C57.045 162.245 56.5576 162.252 56.0706 162.242C55.8639 162.25 55.7439 162.059 55.718 161.877C55.578 161.255 55.2387 160.639 54.6536 160.339C53.7551 159.889 52.7136 159.912 51.7337 159.921C51.0187 159.959 50.2497 160.021 49.6437 160.442C49.1786 160.76 49.0373 161.403 49.2033 161.921C49.3598 162.293 49.789 162.413 50.1403 162.524C52.1637 163.053 54.3078 163 56.2923 163.697C57.1142 163.981 57.918 164.533 58.1992 165.393C58.5672 166.546 58.4059 167.924 57.5855 168.85C56.9201 169.612 55.9512 170.026 54.9848 170.251C53.6992 170.538 52.365 170.545 51.0594 170.418C49.8317 170.278 48.554 169.956 47.6064 169.119C46.7959 168.415 46.4001 167.319 46.4394 166.261C46.4487 166.082 46.6267 165.957 46.798 165.972C47.2884 165.968 47.779 165.967 48.2695 165.973C48.4655 165.959 48.6108 166.128 48.6208 166.313C48.7112 166.905 48.9339 167.527 49.4505 167.878C50.4475 168.521 51.6986 168.477 52.8401 168.495C53.7858 168.453 54.8475 168.441 55.6194 167.816C56.0266 167.459 56.1472 166.863 56.0372 166.349C55.918 165.916 55.4647 165.714 55.0755 165.582C53.0781 164.95 50.91 165.18 48.932 164.465C48.1289 164.181 47.3523 163.645 47.0439 162.82C46.6134 161.652 46.8106 160.208 47.717 159.314C48.6008 158.424 49.8764 158.081 51.0894 157.959Z" fill="#81CD39"/>
</g>
<g clip-path="url(#clip7_11_810)">
<path d="M117.625 144H96.375C91.1973 144 87 148.197 87 153.375V174.625C87 179.803 91.1973 184 96.375 184H117.625C122.803 184 127 179.803 127 174.625V153.375C127 148.197 122.803 144 117.625 144Z" fill="#F4F2ED"/>
<path d="M122.625 172.584C122.17 172.756 121.668 172.756 121.213 172.583C120.759 172.41 120.383 172.077 120.158 171.646C118.742 169.526 117.178 167.502 115.675 165.434L115.023 164.565C113.233 166.963 111.444 169.265 109.81 171.654C109.598 172.066 109.243 172.387 108.811 172.556C108.379 172.726 107.901 172.732 107.465 172.575L114.18 163.566L107.934 155.425C108.384 155.263 108.875 155.261 109.327 155.419C109.778 155.577 110.16 155.887 110.41 156.294C111.861 158.414 113.468 160.438 115.067 162.584C116.674 160.456 118.264 158.423 119.749 156.32C119.963 155.915 120.319 155.603 120.748 155.442C121.177 155.282 121.651 155.286 122.078 155.452L119.654 158.666C118.568 160.1 117.499 161.542 116.37 162.94C116.279 163.022 116.206 163.122 116.156 163.233C116.106 163.345 116.08 163.466 116.08 163.588C116.08 163.71 116.106 163.831 116.156 163.942C116.206 164.054 116.279 164.154 116.37 164.235C118.446 166.989 120.505 169.752 122.625 172.584ZM91.375 163.453C91.5575 162.584 91.6703 161.637 91.9223 160.751C93.4253 155.408 99.5502 153.184 103.764 156.494C106.231 158.432 106.848 161.177 106.726 164.27H92.8259C92.6 169.795 96.5877 173.131 101.687 171.429C102.515 171.133 103.255 170.635 103.842 169.982C104.429 169.328 104.844 168.538 105.05 167.684C105.319 166.815 105.753 166.668 106.579 166.92C106.443 167.977 106.069 168.99 105.485 169.883C104.901 170.775 104.123 171.523 103.208 172.071C101.697 172.898 99.9625 173.225 98.2539 173.007C96.5452 172.788 94.9494 172.035 93.6947 170.855C92.4533 169.459 91.7027 167.696 91.5575 165.834C91.5575 165.538 91.4445 165.243 91.3837 164.965C91.378 164.461 91.3751 163.957 91.375 163.453ZM92.8433 163.08H105.415C105.336 159.075 102.808 156.234 99.4373 156.208C95.6842 156.155 92.9997 158.935 92.8345 163.062L92.8433 163.08Z" fill="#0F0F0F"/>
</g>
<g clip-path="url(#clip8_11_810)">
<path d="M175.625 144H154.375C149.197 144 145 148.197 145 153.375V174.625C145 179.803 149.197 184 154.375 184H175.625C180.803 184 185 179.803 185 174.625V153.375C185 148.197 180.803 144 175.625 144Z" fill="#F4F2ED"/>
<path d="M171.746 160.811C170.099 153.548 166.668 151.615 165.793 150.248C165.432 149.646 165.112 149.02 164.836 148.375C164.79 149.02 164.705 149.427 164.156 149.916C163.055 150.898 158.378 154.709 157.985 162.961C157.618 170.655 163.641 175.399 164.437 175.889C165.049 176.19 165.794 175.896 166.157 175.619C169.061 173.627 173.027 168.315 171.749 160.811" fill="#10AA50"/>
<path d="M165.085 171.792C164.934 173.697 164.825 174.803 164.44 175.892C164.44 175.892 164.693 177.705 164.87 179.625H165.498C165.648 178.273 165.877 176.93 166.183 175.604C165.37 175.204 165.116 173.463 165.085 171.792Z" fill="#B8C4C2"/>
<path d="M166.182 175.605C165.36 175.226 165.123 173.448 165.086 171.792C165.289 169.061 165.349 166.32 165.264 163.582C165.221 162.146 165.284 150.276 164.91 148.538C165.166 149.127 165.461 149.698 165.793 150.247C166.668 151.615 170.1 153.548 171.746 160.811C173.028 168.302 169.082 173.6 166.182 175.605Z" fill="#12924F"/>
</g>
<path d="M205.807 168.4C205.514 168.477 205.096 168.718 204.898 168.927L204.704 169.123L204.65 168.432H203.933L203.917 170.938L203.905 173.448H204.721L204.744 171.815C204.771 169.973 204.803 169.798 205.152 169.442C205.405 169.184 205.802 169.041 206.148 169.08C206.441 169.113 206.645 169.244 206.799 169.507C206.903 169.683 206.908 169.809 206.926 171.569L206.943 173.448H207.758L207.774 171.706C207.79 170.034 207.796 169.957 207.912 169.737C208.336 168.954 209.456 168.834 209.824 169.53C209.935 169.737 209.94 169.853 209.957 171.596L209.978 173.448H210.745L210.728 171.404L210.711 169.364L210.557 169.075C210.215 168.427 209.272 168.175 208.491 168.515C208.363 168.571 208.121 168.751 207.95 168.909C207.665 169.179 207.636 169.196 207.577 169.097C207.433 168.85 207.196 168.631 206.958 168.516C206.677 168.389 206.082 168.324 205.807 168.4Z" fill="#F4F2ED"/>
<path d="M212.673 168.405C212.006 168.547 211.362 169.024 211.108 169.573C210.717 170.401 210.733 171.59 211.146 172.395C211.566 173.217 212.651 173.688 213.637 173.485C214.983 173.201 215.61 172.263 215.516 170.68C215.5 170.406 215.45 170.061 215.401 169.902C215.214 169.305 214.674 168.745 214.067 168.52C213.709 168.384 213.037 168.33 212.673 168.405ZM213.803 169.195C214.392 169.469 214.679 170.034 214.674 170.927C214.668 171.832 214.404 172.395 213.853 172.675C213.483 172.866 212.867 172.872 212.524 172.697C212.288 172.571 212.006 172.285 211.873 172.033C211.625 171.556 211.615 170.444 211.852 169.935C212.116 169.359 212.552 169.074 213.163 169.069C213.429 169.064 213.594 169.096 213.803 169.195ZM217.517 168.422C217.126 168.537 216.889 168.668 216.662 168.898C216.542 169.019 216.425 169.118 216.404 169.118C216.382 169.118 216.36 168.959 216.36 168.762V168.4L216.018 168.416L215.671 168.432L215.655 170.937L215.643 173.447H216.47V171.869C216.476 170.203 216.502 169.929 216.723 169.6C216.878 169.359 217.291 169.128 217.655 169.08C218.178 169.008 218.713 169.31 218.834 169.748C218.873 169.886 218.895 170.602 218.895 171.705V173.447H219.727L219.711 171.486L219.694 169.53L219.551 169.222C219.385 168.877 219.138 168.652 218.746 168.499C218.405 168.367 217.837 168.329 217.517 168.422ZM221.539 168.4C220.708 168.581 220.118 169.212 219.887 170.16C219.782 170.581 219.799 171.382 219.914 171.776C220.251 172.938 221 173.514 222.086 173.437C222.504 173.404 222.868 173.262 223.149 173.015C223.336 172.85 223.353 172.845 223.386 172.949C223.442 173.129 223.353 173.836 223.248 174.077C223.039 174.549 222.626 174.763 221.931 174.763C221.309 174.758 220.889 174.527 220.79 174.127C220.763 174.023 220.708 173.996 220.504 173.968C220.377 173.954 220.25 173.934 220.124 173.908C220.008 173.886 219.996 173.903 219.996 174.117C220.002 174.642 220.399 175.103 221.038 175.322C221.32 175.422 221.523 175.448 221.953 175.448C222.946 175.448 223.628 175.097 223.959 174.423C224.207 173.924 224.246 173.343 224.228 170.68L224.212 168.432H223.496L223.479 168.718C223.469 168.877 223.447 169.008 223.431 169.008C223.413 169.008 223.314 168.932 223.204 168.839C222.786 168.472 222.069 168.285 221.54 168.4L221.539 168.4ZM222.626 169.2C222.781 169.283 222.978 169.431 223.061 169.54C223.678 170.345 223.562 172.006 222.846 172.521C222.146 173.026 221.171 172.751 220.824 171.957C220.647 171.551 220.603 170.631 220.742 170.132C220.846 169.731 221.142 169.348 221.48 169.173C221.777 169.014 222.272 169.024 222.626 169.2ZM226.086 168.427C225.629 168.558 225.491 168.625 225.188 168.855C224.598 169.294 224.323 169.967 224.329 170.953C224.329 171.672 224.439 172.105 224.737 172.566C225.133 173.174 225.811 173.514 226.637 173.52C227.591 173.525 228.346 173.102 228.726 172.352L228.919 171.968L229.089 172.319C229.712 173.629 231.663 173.946 232.772 172.927C232.947 172.768 233.14 172.544 233.196 172.44C233.257 172.33 233.316 172.242 233.332 172.242C233.35 172.242 233.41 172.357 233.465 172.505C233.742 173.163 234.424 173.525 235.399 173.519C235.967 173.519 236.386 173.415 236.767 173.174C236.993 173.032 237.356 172.625 237.356 172.51C237.356 172.488 237.383 172.401 237.417 172.319L237.471 172.165L237.631 172.44C238.321 173.645 240.244 173.913 241.29 172.954C241.561 172.702 241.929 172.051 241.842 171.968C241.814 171.941 241.627 171.896 241.423 171.874L241.06 171.826L240.97 172.012C240.722 172.526 240.37 172.785 239.836 172.828C238.992 172.906 238.358 172.384 238.193 171.492C238.166 171.333 238.155 171.189 238.171 171.173C238.187 171.157 239.042 171.146 240.067 171.146H241.929V170.851C241.929 170.471 241.857 170.099 241.705 169.693C241.527 169.222 240.988 168.697 240.498 168.515C239.968 168.317 239.235 168.33 238.712 168.542C237.836 168.898 237.306 169.787 237.3 170.888V171.267L237.081 171.074C236.843 170.877 236.37 170.685 235.621 170.489C234.782 170.269 234.501 170.159 234.352 169.989C234.193 169.798 234.182 169.672 234.297 169.452C234.424 169.2 234.776 169.064 235.301 169.064C235.901 169.064 236.171 169.2 236.364 169.595C236.474 169.819 236.524 169.874 236.612 169.857C236.736 169.836 236.861 169.818 236.986 169.803C237.295 169.765 237.318 169.683 237.113 169.249C236.844 168.673 236.221 168.378 235.29 168.384C234.854 168.389 234.672 168.411 234.414 168.515C233.851 168.729 233.532 169.107 233.449 169.661L233.41 169.913L233.239 169.584C232.38 167.939 229.822 167.973 229.057 169.638L228.919 169.94L228.726 169.557C228.483 169.074 228.103 168.734 227.586 168.537C227.128 168.362 226.488 168.317 226.086 168.427ZM227.315 169.206C227.882 169.485 228.164 170.056 228.164 170.927C228.158 172.132 227.602 172.845 226.664 172.845C226.091 172.845 225.612 172.527 225.353 171.985C225.216 171.689 225.204 171.617 225.204 170.927C225.204 170.121 225.265 169.892 225.585 169.517C225.965 169.069 226.747 168.927 227.315 169.206ZM231.701 169.145C231.967 169.255 232.324 169.584 232.452 169.831C232.694 170.302 232.732 171.288 232.535 171.864C232.424 172.188 232.121 172.544 231.828 172.687C231.332 172.939 230.616 172.856 230.208 172.499C229.537 171.913 229.454 170.27 230.065 169.562C230.445 169.112 231.178 168.932 231.701 169.145ZM240.232 169.168C240.668 169.354 240.993 169.798 241.01 170.231L241.02 170.461H238.211L238.227 170.297C238.265 169.836 238.584 169.404 239.037 169.179C239.334 169.03 239.902 169.024 240.232 169.168ZM233.862 170.718C234.083 170.921 234.392 171.042 235.372 171.304C235.84 171.431 236.287 171.58 236.364 171.634C236.838 171.974 236.591 172.631 235.922 172.791C235.526 172.883 234.986 172.834 234.667 172.67C234.446 172.561 234.379 172.483 234.242 172.193L234.077 171.853L233.427 171.918L233.465 171.661C233.481 171.519 233.499 171.141 233.499 170.822V170.241L233.603 170.407C233.657 170.495 233.774 170.637 233.862 170.718ZM224.803 151.889C224.3 151.909 223.454 152.043 223.454 152.1C223.454 152.124 224.051 152.423 224.096 152.423C224.139 152.423 224.833 152.77 224.986 152.866C225.188 152.994 225.331 153.111 225.289 153.111C225.262 153.111 224.55 152.836 224.28 152.719C224.061 152.626 223.147 152.355 222.702 152.249C222.462 152.193 222.361 152.172 221.951 152.097C221.347 151.987 220.639 151.981 220.328 152.082C219.887 152.226 219.788 152.402 219.788 153.054C219.788 153.412 219.805 153.564 219.884 153.887C219.917 154.027 220.013 154.335 220.059 154.44C220.071 154.472 220.113 154.574 220.148 154.665C220.185 154.754 220.293 154.984 220.389 155.172C220.927 156.239 221.732 157.129 222.867 157.912C223.224 158.157 224.199 158.623 224.589 158.734C224.688 158.761 224.722 158.818 224.641 158.818C224.55 158.818 223.727 158.59 223.558 158.519C223.494 158.491 223.429 158.465 223.363 158.442C222.778 158.204 222.03 157.718 221.411 157.165C220.732 156.562 220.19 155.821 219.82 154.992C219.583 154.457 219.422 153.833 219.383 153.289C219.359 152.979 219.334 152.903 219.253 152.907C219.226 152.907 218.971 152.898 218.687 152.883C217.922 152.851 216.874 152.935 215.837 153.114C213.854 153.451 211.715 154.231 209.513 155.421C209.146 155.618 208.784 155.824 208.427 156.038C208.385 156.062 208.253 156.142 208.133 156.218C208.013 156.293 207.872 156.377 207.82 156.409C207.707 156.475 206.448 157.329 206.298 157.443C206.241 157.485 206.083 157.602 205.952 157.696C205.354 158.14 204.053 159.2 203.978 159.307C203.942 159.361 203.998 159.388 204.077 159.361C204.116 159.347 204.218 159.326 204.299 159.314C204.383 159.302 204.6 159.245 204.78 159.186C204.925 159.139 205.07 159.095 205.217 159.054C205.661 158.95 205.841 158.913 206.103 158.875C206.219 158.859 206.394 158.833 206.493 158.818C207.713 158.638 208.296 158.593 208.839 158.635C210.02 158.732 211.15 158.931 211.797 159.161C212.28 159.334 213.265 159.867 213.698 160.187C213.948 160.375 214.752 161.176 214.93 161.418C215.068 161.609 215.221 161.776 215.258 161.776C215.268 161.776 215.285 161.166 215.287 160.422L215.296 159.072L216.877 159.062C218.12 159.057 218.466 159.066 218.487 159.093C218.517 159.132 218.589 159.26 218.826 159.699C219.052 160.12 219.163 160.323 219.232 160.447C219.268 160.512 219.352 160.667 219.422 160.789C219.487 160.912 219.61 161.139 219.694 161.294C219.778 161.451 219.847 161.582 219.847 161.587C219.847 161.614 219.971 161.776 219.992 161.776C220.005 161.776 220.034 161.731 220.055 161.681C220.079 161.626 220.142 161.507 220.193 161.418C220.247 161.327 220.343 161.151 220.41 161.029C220.476 160.906 220.567 160.737 220.614 160.655C220.747 160.419 220.885 160.162 220.999 159.953C221.056 159.845 221.147 159.678 221.199 159.579C221.253 159.481 221.332 159.341 221.374 159.265C221.405 159.206 221.439 159.148 221.477 159.093C221.5 159.066 221.855 159.057 223.135 159.062L224.761 159.072L224.769 161.711C224.776 163.79 224.784 164.345 224.815 164.345C224.832 164.342 224.953 164.273 225.077 164.187C225.25 164.065 225.326 163.991 225.406 163.852C225.59 163.539 226.109 163.046 226.458 162.855C226.882 162.621 227.337 162.45 227.81 162.347C228.292 162.246 228.432 162.231 229.523 162.191C231.514 162.122 231.81 162.11 231.825 162.095C231.832 162.087 231.806 162.008 231.768 161.919C231.726 161.832 231.653 161.671 231.602 161.564C231.413 161.154 231.413 161.017 231.611 160.816C231.746 160.677 232.094 160.554 232.693 160.434C232.792 160.412 232.915 160.387 232.967 160.368C233.017 160.353 233.081 160.342 233.107 160.342C233.182 160.342 233.781 160.194 233.907 160.147C233.994 160.112 234.462 160.01 235.022 159.902C235.264 159.855 235.896 159.729 236.418 159.624C236.749 159.559 237.094 159.49 237.184 159.472C237.275 159.454 237.403 159.428 237.47 159.416C237.536 159.401 237.623 159.383 237.665 159.376C237.707 159.367 237.918 159.326 238.131 159.282C238.291 159.247 238.452 159.215 238.614 159.188C238.765 159.173 239.897 158.901 240.159 158.818C240.573 158.683 240.696 158.63 240.958 158.454C241.241 158.261 241.318 158.157 241.597 157.602C241.908 156.983 241.952 156.878 242.039 156.618C242.174 156.204 242.167 156.045 241.994 155.872C241.875 155.752 241.617 155.629 241.427 155.602C241.286 155.585 241.268 155.59 241.198 155.666C241.156 155.711 241.121 155.763 241.121 155.782C241.121 155.808 241.072 155.941 240.938 156.263C240.926 156.296 240.899 156.377 240.877 156.442C240.856 156.513 240.831 156.583 240.802 156.651C240.763 156.735 240.761 156.72 240.775 156.487C240.79 156.256 240.83 156.062 240.916 155.77C240.931 155.713 240.953 155.617 240.961 155.557L240.976 155.45L240.664 155.324C240.408 155.219 240.152 155.112 239.898 155.002C239.798 154.962 239.697 154.923 239.597 154.885C239.492 154.848 239.39 154.806 239.288 154.762C239.184 154.716 239.078 154.673 238.972 154.631C238.77 154.553 238.067 154.315 237.47 154.127C237.307 154.075 236.362 153.792 236.268 153.765C236.128 153.729 235.988 153.69 235.848 153.648C235.799 153.636 235.683 153.604 235.592 153.579C235.064 153.433 234.926 153.397 234.736 153.343C234.632 153.312 234.526 153.284 234.42 153.26C234.363 153.245 234.208 153.208 234.075 153.176C233.5 153.04 232.924 152.907 232.348 152.776C232.222 152.747 232.097 152.718 231.971 152.689C231.881 152.67 231.792 152.651 231.701 152.635C231.576 152.612 231.451 152.588 231.326 152.561C231.131 152.522 230.935 152.486 230.739 152.452C230.564 152.421 230.389 152.39 230.214 152.36C229.385 152.211 229.327 152.202 227.84 152.038C226.923 151.934 225.692 151.847 225.391 151.862C225.195 151.868 224.999 151.877 224.803 151.889M221.33 153.361C222.122 153.619 222.895 153.968 223.424 154.308C223.844 154.581 224.367 155.014 224.508 155.208L224.569 155.289L224.454 155.244C224.391 155.217 224.259 155.161 224.16 155.113C223.632 154.868 223.575 154.846 223.575 154.901C223.575 154.915 223.698 155.113 223.844 155.334C223.995 155.557 224.115 155.755 224.115 155.772C224.115 155.787 224.058 155.763 223.989 155.716C223.718 155.53 223.084 155.265 223.047 155.319C223.04 155.334 223.235 155.582 223.484 155.872C223.73 156.162 223.935 156.409 223.935 156.427C223.935 156.472 223.886 156.466 223.659 156.382C223.424 156.298 223.363 156.29 223.363 156.346C223.363 156.385 223.871 157.069 224.073 157.307C224.13 157.371 224.175 157.434 224.175 157.449C224.175 157.521 223.472 157.064 222.973 156.669C222.261 156.102 221.572 155.339 221.209 154.709C220.912 154.195 220.81 153.917 220.81 153.612C220.81 153.433 220.819 153.397 220.886 153.334C220.924 153.292 220.972 153.259 220.99 153.259C221.008 153.259 221.158 153.305 221.33 153.361ZM230.816 154.425C231.104 154.477 231.497 154.544 231.687 154.578C231.876 154.611 232.107 154.65 232.197 154.665C232.287 154.682 232.417 154.707 232.483 154.722C232.548 154.737 232.678 154.762 232.767 154.784C233.066 154.849 233.138 154.864 233.624 154.978C234.147 155.101 234.261 155.124 234.421 155.158C234.556 155.184 234.691 155.235 234.691 155.26C234.691 155.267 234.591 155.325 234.472 155.387C234.225 155.51 234.174 155.519 233.159 155.557C232.467 155.587 232.099 155.579 231.762 155.525C231.082 155.421 230.732 155.23 230.458 154.817C230.362 154.676 230.298 154.635 230.079 154.578C229.997 154.554 229.874 154.521 229.809 154.5C229.743 154.479 229.629 154.447 229.556 154.425C229.34 154.368 229.463 154.336 229.898 154.336C230.199 154.336 230.409 154.356 230.816 154.425ZM234.429 158.6C234.405 158.606 234.379 158.606 234.354 158.6C234.333 158.59 234.348 158.585 234.39 158.585C234.432 158.585 234.447 158.591 234.429 158.6ZM234.299 158.635C234.299 158.65 234.264 158.672 234.218 158.68C234.024 158.733 233.831 158.789 233.638 158.848C233.597 158.863 233.462 158.905 233.339 158.94C233.029 159.029 232.278 159.274 232.077 159.352C231.699 159.495 230.808 159.968 230.683 160.092C230.497 160.276 230.439 160.473 230.466 160.85C230.475 161.007 230.497 161.207 230.514 161.294C230.55 161.482 230.529 161.534 230.457 161.441C230.385 161.349 230.231 161.014 230.187 160.85C230.162 160.774 230.135 160.677 230.12 160.628C230.066 160.458 230.088 160.258 230.172 160.135C230.286 159.961 230.695 159.684 231.176 159.453C231.403 159.343 232.067 159.116 232.678 158.937C232.801 158.901 232.936 158.859 232.977 158.848C233.411 158.702 234.299 158.561 234.299 158.635ZM224.796 158.836C224.788 158.844 224.761 158.848 224.739 158.838C224.715 158.829 224.724 158.821 224.757 158.821C224.791 158.818 224.809 158.826 224.796 158.836Z" fill="#F4F2ED"/>
<path d="M218.495 164.615V166.706H219.992C221.116 166.706 221.497 166.697 221.524 166.67C221.569 166.625 221.579 162.523 221.534 162.523C221.519 162.523 221.497 162.546 221.488 162.573C221.477 162.6 221.149 163.111 220.758 163.708C220.14 164.653 219.968 164.883 219.968 164.767C219.968 164.746 218.944 163.148 218.682 162.762C218.646 162.712 218.615 162.659 218.588 162.603C218.564 162.558 218.535 162.523 218.52 162.523C218.507 162.523 218.495 163.465 218.495 164.615Z" fill="#F4F2ED"/>
<g clip-path="url(#clip9_11_810)">
<path d="M117.625 216H96.375C91.1973 216 87 220.197 87 225.375V246.625C87 251.803 91.1973 256 96.375 256H117.625C122.803 256 127 251.803 127 246.625V225.375C127 220.197 122.803 216 117.625 216Z" fill="#F03C2E"/>
<mask id="mask0_11_810" style="mask-type:luminance" maskUnits="userSpaceOnUse" x="91" y="220" width="32" height="32">
<path d="M91.375 220.375H122.625V251.625H91.375V220.375Z" fill="white"/>
</mask>
<g mask="url(#mask0_11_810)">
<path d="M122.035 234.608L108.391 220.965C108.11 220.683 107.751 220.491 107.361 220.414C106.971 220.336 106.566 220.376 106.198 220.528C105.954 220.63 105.732 220.778 105.546 220.965L102.714 223.797L106.307 227.391C107.143 227.098 108.1 227.298 108.766 227.964C109.083 228.282 109.305 228.682 109.405 229.119C109.505 229.557 109.481 230.013 109.334 230.438L112.798 233.901C113.636 233.612 114.602 233.799 115.271 234.47C115.606 234.805 115.834 235.231 115.927 235.696C116.019 236.161 115.972 236.642 115.79 237.08C115.547 237.667 115.08 238.133 114.494 238.376C113.907 238.619 113.247 238.619 112.661 238.376C112.37 238.255 112.106 238.079 111.883 237.856C111.18 237.153 111.007 236.118 111.362 235.252L108.132 232.021V240.523C108.366 240.639 108.58 240.792 108.766 240.976C109.215 241.425 109.468 242.034 109.468 242.669C109.468 243.304 109.215 243.913 108.766 244.362C108.317 244.811 107.708 245.064 107.073 245.064C106.438 245.064 105.829 244.811 105.38 244.362C105.044 244.028 104.816 243.601 104.724 243.136C104.631 242.672 104.678 242.19 104.86 241.752C104.98 241.462 105.157 241.198 105.38 240.976C105.611 240.745 105.868 240.57 106.164 240.453V231.873C105.87 231.753 105.604 231.575 105.38 231.351C105.043 231.015 104.815 230.586 104.723 230.12C104.631 229.654 104.68 229.171 104.864 228.732L101.319 225.19L91.9636 234.535C91.682 234.817 91.4902 235.175 91.4124 235.566C91.3347 235.956 91.3745 236.361 91.5269 236.729C91.6282 236.973 91.7766 237.195 91.9636 237.382L105.608 251.025C105.795 251.211 106.017 251.36 106.261 251.461C106.754 251.665 107.308 251.665 107.801 251.461C108.045 251.36 108.267 251.211 108.454 251.025L122.035 237.465C122.222 237.278 122.37 237.056 122.471 236.812C122.573 236.568 122.625 236.306 122.625 236.042C122.625 235.777 122.573 235.516 122.472 235.271C122.37 235.027 122.222 234.805 122.035 234.618" fill="white"/>
</g>
</g>
<g clip-path="url(#clip10_11_810)">
<path d="M175.625 216H154.375C149.197 216 145 220.197 145 225.375V246.625C145 251.803 149.197 256 154.375 256H175.625C180.803 256 185 251.803 185 246.625V225.375C185 220.197 180.803 216 175.625 216Z" fill="#FF6C37"/>
<path d="M171.416 229.846L163.519 237.743L161.292 235.516C169.058 227.75 169.825 228.424 171.416 229.846Z" fill="#EEEEEE"/>
<path d="M163.519 237.93C163.463 237.93 163.425 237.911 163.388 237.874L161.142 235.647C161.124 235.63 161.11 235.61 161.101 235.587C161.091 235.564 161.086 235.54 161.086 235.516C161.086 235.491 161.091 235.467 161.101 235.445C161.11 235.422 161.124 235.402 161.142 235.385C169.039 227.488 169.863 228.236 171.528 229.733C171.566 229.771 171.584 229.808 171.584 229.864C171.584 229.921 171.566 229.958 171.528 229.995L163.631 237.874C163.613 237.911 163.556 237.93 163.519 237.93ZM161.554 235.516L163.519 237.481L171.135 229.864C169.75 228.629 168.815 228.255 161.554 235.516Z" fill="#FF6C37"/>
<path d="M165.783 240.007L163.631 237.855L171.528 229.958C173.643 232.091 170.48 235.553 165.783 240.007Z" fill="#EEEEEE"/>
<path d="M165.783 240.194C165.727 240.194 165.69 240.175 165.652 240.138L163.5 237.986C163.463 237.949 163.463 237.911 163.463 237.855C163.463 237.799 163.481 237.761 163.519 237.724L171.416 229.827C171.433 229.809 171.453 229.795 171.476 229.786C171.498 229.776 171.522 229.771 171.547 229.771C171.571 229.771 171.596 229.776 171.618 229.786C171.641 229.795 171.661 229.809 171.678 229.827C171.917 230.048 172.106 230.318 172.231 230.618C172.357 230.918 172.417 231.242 172.408 231.567C172.37 233.644 170.012 236.283 165.933 240.138C165.877 240.175 165.82 240.194 165.783 240.194ZM163.893 237.855C165.091 239.071 165.596 239.558 165.783 239.745C168.927 236.751 171.977 233.682 171.996 231.567C172.015 231.081 171.828 230.594 171.509 230.22L163.893 237.855Z" fill="#FF6C37"/>
<path d="M161.329 235.572L162.92 237.163C162.957 237.2 162.957 237.237 162.92 237.275C162.901 237.294 162.901 237.294 162.883 237.294L159.589 238.005C159.421 238.023 159.271 237.911 159.233 237.743C159.215 237.649 159.252 237.556 159.308 237.499L161.217 235.591C161.255 235.553 161.311 235.534 161.329 235.572Z" fill="#EEEEEE"/>
<path d="M159.533 238.192C159.252 238.192 159.046 237.967 159.046 237.686C159.046 237.556 159.103 237.425 159.196 237.331L161.105 235.422C161.217 235.329 161.367 235.329 161.479 235.422L163.07 237.013C163.182 237.106 163.182 237.275 163.07 237.387C163.032 237.425 162.995 237.443 162.939 237.462L159.645 238.173C159.608 238.173 159.57 238.192 159.533 238.192ZM161.273 235.778L159.439 237.612C159.402 237.649 159.383 237.705 159.421 237.761C159.439 237.817 159.495 237.836 159.552 237.817L162.639 237.144L161.273 235.778Z" fill="#FF6C37"/>
<path d="M175.589 225.467C174.391 224.307 172.464 224.344 171.303 225.56C170.143 226.777 170.181 228.685 171.397 229.846C171.877 230.31 172.497 230.602 173.161 230.676C173.824 230.751 174.494 230.603 175.065 230.257L172.932 228.124L175.589 225.467Z" fill="#EEEEEE"/>
<path d="M173.493 230.875C171.715 230.875 170.274 229.434 170.274 227.656C170.274 225.878 171.715 224.438 173.493 224.438C174.316 224.438 175.121 224.756 175.72 225.336C175.757 225.373 175.776 225.411 175.776 225.467C175.776 225.523 175.757 225.56 175.72 225.598L173.194 228.124L175.177 230.108C175.252 230.183 175.252 230.295 175.177 230.37L175.14 230.407C174.653 230.706 174.073 230.875 173.493 230.875ZM173.493 224.831C171.921 224.831 170.649 226.103 170.667 227.675C170.667 229.247 171.94 230.519 173.512 230.501C173.942 230.501 174.372 230.407 174.765 230.201L172.801 228.255C172.763 228.218 172.745 228.18 172.745 228.124C172.745 228.068 172.763 228.03 172.801 227.993L175.308 225.485C174.803 225.055 174.167 224.831 173.493 224.831Z" fill="#FF6C37"/>
<path d="M175.645 225.523L175.608 225.485L172.932 228.124L175.046 230.239C175.252 230.108 175.458 229.958 175.626 229.79C175.91 229.512 176.135 229.181 176.29 228.815C176.445 228.45 176.525 228.057 176.527 227.66C176.529 227.263 176.452 226.87 176.3 226.503C176.149 226.136 175.926 225.803 175.645 225.523Z" fill="#EEEEEE"/>
<path d="M175.065 230.445C175.009 230.445 174.971 230.426 174.934 230.388L172.801 228.255C172.763 228.217 172.745 228.18 172.745 228.124C172.745 228.068 172.763 228.03 172.801 227.993L175.458 225.336C175.533 225.261 175.645 225.261 175.72 225.336L175.776 225.373C177.03 226.627 177.03 228.648 175.795 229.921C175.608 230.108 175.402 230.276 175.177 230.407C175.121 230.426 175.084 230.445 175.065 230.445ZM173.194 228.124L175.084 230.014C175.233 229.921 175.383 229.79 175.495 229.677C176.562 228.611 176.618 226.87 175.589 225.748L173.194 228.124Z" fill="#FF6C37"/>
<path d="M171.734 230.182C171.518 229.967 171.225 229.846 170.92 229.846C170.615 229.846 170.322 229.967 170.106 230.182L163.051 237.237L164.23 238.416L171.697 231.867C172.183 231.455 172.22 230.725 171.809 230.239C171.771 230.22 171.753 230.201 171.734 230.182Z" fill="#EEEEEE"/>
<path d="M164.211 238.603C164.155 238.603 164.118 238.585 164.08 238.547L162.901 237.368C162.884 237.352 162.869 237.331 162.86 237.309C162.85 237.286 162.845 237.262 162.845 237.237C162.845 237.213 162.85 237.189 162.86 237.166C162.869 237.144 162.884 237.123 162.901 237.106L169.956 230.051C170.08 229.927 170.227 229.828 170.389 229.761C170.552 229.693 170.726 229.658 170.901 229.658C171.077 229.658 171.251 229.693 171.413 229.761C171.575 229.828 171.722 229.927 171.846 230.051C171.971 230.175 172.07 230.323 172.137 230.485C172.205 230.647 172.239 230.821 172.239 230.996C172.239 231.172 172.205 231.346 172.137 231.508C172.07 231.67 171.971 231.818 171.846 231.942L171.79 231.998L164.323 238.547C164.305 238.585 164.267 238.603 164.211 238.603ZM163.313 237.237L164.23 238.154L171.566 231.717C171.977 231.38 172.015 230.762 171.678 230.351C171.341 229.939 170.723 229.902 170.312 230.238C170.293 230.257 170.274 230.276 170.237 230.295L163.313 237.237Z" fill="#FF6C37"/>
<path d="M157.643 245.266C157.568 245.303 157.53 245.378 157.549 245.453L157.867 246.8C157.942 246.987 157.83 247.212 157.624 247.268C157.474 247.324 157.306 247.268 157.213 247.156L155.154 245.116L161.872 238.398L164.192 238.435L165.764 240.007C165.39 240.325 163.126 242.515 157.643 245.266Z" fill="#EEEEEE"/>
<path d="M157.493 247.455C157.343 247.455 157.194 247.399 157.1 247.287L155.06 245.247C155.023 245.209 155.004 245.172 155.004 245.116C155.004 245.06 155.023 245.022 155.06 244.985L161.778 238.267C161.816 238.229 161.872 238.21 161.91 238.21L164.23 238.248C164.286 238.248 164.323 238.267 164.361 238.304L165.933 239.876C165.97 239.913 165.989 239.97 165.989 240.026C165.989 240.082 165.97 240.119 165.914 240.157L165.783 240.269C163.8 242.009 161.105 243.75 157.755 245.415L158.073 246.744C158.129 246.987 158.017 247.249 157.793 247.38C157.68 247.436 157.587 247.455 157.493 247.455ZM155.435 245.116L157.362 247.025C157.418 247.118 157.53 247.155 157.624 247.099C157.718 247.043 157.755 246.931 157.699 246.837L157.381 245.49C157.343 245.322 157.418 245.172 157.568 245.097C160.88 243.432 163.556 241.71 165.521 240.007L164.136 238.622L161.984 238.585L155.435 245.116Z" fill="#FF6C37"/>
<path d="M153.563 246.725L155.173 245.116L157.568 247.511L153.75 247.249C153.582 247.23 153.47 247.081 153.488 246.912C153.488 246.837 153.507 246.763 153.563 246.725Z" fill="#EEEEEE"/>
<path d="M157.568 247.68L153.732 247.417C153.451 247.399 153.264 247.156 153.282 246.875C153.301 246.762 153.339 246.65 153.432 246.575L155.042 244.966C155.059 244.948 155.079 244.934 155.101 244.925C155.124 244.915 155.148 244.91 155.173 244.91C155.197 244.91 155.221 244.915 155.244 244.925C155.266 244.934 155.287 244.948 155.304 244.966L157.699 247.361C157.755 247.417 157.774 247.492 157.736 247.567C157.699 247.642 157.643 247.68 157.568 247.68ZM155.173 245.378L153.694 246.856C153.638 246.894 153.638 246.987 153.694 247.025C153.713 247.043 153.732 247.062 153.769 247.062L157.081 247.287L155.173 245.378ZM161.217 239.259C161.105 239.259 161.03 239.165 161.03 239.071C161.03 239.015 161.049 238.978 161.086 238.94L162.901 237.125C162.918 237.108 162.938 237.093 162.961 237.084C162.984 237.074 163.008 237.069 163.032 237.069C163.057 237.069 163.081 237.074 163.104 237.084C163.126 237.093 163.146 237.108 163.163 237.125L164.342 238.304C164.398 238.36 164.417 238.416 164.398 238.491C164.38 238.547 164.323 238.604 164.249 238.622L161.255 239.259H161.217ZM163.032 237.518L161.797 238.753L163.818 238.323L163.032 237.518Z" fill="#FF6C37"/>
<path d="M164.192 238.435L162.134 238.884C161.984 238.922 161.835 238.828 161.797 238.678C161.778 238.585 161.797 238.491 161.872 238.416L163.013 237.275L164.192 238.435Z" fill="#EEEEEE"/>
<path d="M162.097 239.071C162.035 239.072 161.974 239.06 161.917 239.037C161.86 239.014 161.808 238.979 161.764 238.936C161.721 238.892 161.686 238.84 161.663 238.783C161.64 238.726 161.628 238.665 161.629 238.604C161.629 238.473 161.685 238.36 161.76 238.267L162.901 237.125C162.918 237.108 162.938 237.093 162.961 237.084C162.984 237.074 163.008 237.069 163.032 237.069C163.057 237.069 163.081 237.074 163.104 237.084C163.126 237.093 163.146 237.108 163.163 237.125L164.342 238.304C164.398 238.36 164.417 238.416 164.398 238.491C164.38 238.547 164.323 238.604 164.249 238.622L162.19 239.071H162.097ZM163.032 237.518L162.022 238.529C161.984 238.566 161.984 238.604 162.003 238.641C162.022 238.678 162.059 238.697 162.115 238.697L163.837 238.323L163.032 237.518ZM175.664 227.319C175.626 227.207 175.495 227.151 175.383 227.188C175.271 227.226 175.215 227.357 175.252 227.469C175.252 227.488 175.271 227.507 175.271 227.525C175.383 227.75 175.346 228.03 175.196 228.236C175.121 228.33 175.14 228.461 175.215 228.536C175.308 228.61 175.439 228.592 175.514 228.498C175.795 228.143 175.851 227.694 175.664 227.319Z" fill="#FF6C37"/>
</g>
<defs>
<linearGradient id="paint0_linear_11_810" x1="238.074" y1="108.711" x2="257.7" y2="87.8313" gradientUnits="userSpaceOnUse">
<stop stop-color="#DF1C84"/>
<stop offset="0.401" stop-color="#DE1C85"/>
<stop offset="0.77" stop-color="#932C86"/>
<stop offset="1" stop-color="#5C2F87"/>
</linearGradient>
<radialGradient id="paint1_radial_11_810" cx="0" cy="0" r="1" gradientUnits="userSpaceOnUse" gradientTransform="translate(259.677 82.2923) rotate(0.136224) scale(19.1763 16.0349)">
<stop stop-color="#DF1C84"/>
<stop offset="0.139" stop-color="#DE1E85"/>
<stop offset="0.285" stop-color="#D62085"/>
<stop offset="0.434" stop-color="#C82286"/>
<stop offset="0.586" stop-color="#B72786"/>
<stop offset="0.739" stop-color="#9C2A86"/>
<stop offset="0.891" stop-color="#7C2E87"/>
<stop offset="1" stop-color="#5C2F87"/>
</radialGradient>
<linearGradient id="paint2_linear_11_810" x1="242.761" y1="79.4745" x2="251.303" y2="79.4745" gradientUnits="userSpaceOnUse">
<stop stop-color="#DF1C84"/>
<stop offset="0.238" stop-color="#D91E85"/>
<stop offset="0.658" stop-color="#C72085"/>
<stop offset="0.999" stop-color="#B42184"/>
</linearGradient>
<clipPath id="clip0_11_810">
<rect width="40" height="40" fill="white" transform="translate(87)"/>
</clipPath>
<clipPath id="clip1_11_810">
<rect width="40" height="40" fill="white" transform="translate(145)"/>
</clipPath>
<clipPath id="clip2_11_810">
<rect width="40" height="40" fill="white" transform="translate(0 72)"/>
</clipPath>
<clipPath id="clip3_11_810">
<rect width="40" height="40" fill="white" transform="translate(116 72)"/>
</clipPath>
<clipPath id="clip4_11_810">
<rect width="40" height="40" fill="white" transform="translate(174 72)"/>
</clipPath>
<clipPath id="clip5_11_810">
<rect width="40" height="40" fill="white" transform="translate(232 72)"/>
</clipPath>
<clipPath id="clip6_11_810">
<rect width="40" height="40" fill="white" transform="translate(29 144)"/>
</clipPath>
<clipPath id="clip7_11_810">
<rect width="40" height="40" fill="white" transform="translate(87 144)"/>
</clipPath>
<clipPath id="clip8_11_810">
<rect width="40" height="40" fill="white" transform="translate(145 144)"/>
</clipPath>
<clipPath id="clip9_11_810">
<rect width="40" height="40" fill="white" transform="translate(87 216)"/>
</clipPath>
<clipPath id="clip10_11_810">
<rect width="40" height="40" fill="white" transform="translate(145 216)"/>
</clipPath>
</defs>
</svg>
