<svg width="442" height="344" viewBox="0 0 442 344" fill="none" xmlns="http://www.w3.org/2000/svg">
<g clip-path="url(#clip0_0_66)">
<path d="M38.2812 98H11.7188C5.24666 98 0 103.247 0 109.719V136.281C0 142.753 5.24666 148 11.7188 148H38.2812C44.7533 148 50 142.753 50 136.281V109.719C50 103.247 44.7533 98 38.2812 98Z" fill="#F0DB4F"/>
<path d="M13.1469 139.784L16.9731 137.468C17.7113 138.777 18.3828 139.884 19.9936 139.884C21.5375 139.884 22.5109 139.28 22.5109 136.931V120.955H27.2098V136.997C27.2098 141.864 24.357 144.079 20.1949 144.079C16.4361 144.079 14.2543 142.133 13.1467 139.783M29.7619 139.28L33.5877 137.065C34.5949 138.71 35.9039 139.918 38.2195 139.918C40.1666 139.918 41.408 138.945 41.408 137.602C41.408 135.991 40.1326 135.42 37.9846 134.481L36.8102 133.977C33.4201 132.534 31.1713 130.722 31.1713 126.896C31.1713 123.371 33.8564 120.686 38.052 120.686C41.0391 120.686 43.1871 121.727 44.7309 124.445L41.0725 126.795C40.2668 125.352 39.3945 124.781 38.052 124.781C36.6758 124.781 35.8031 125.654 35.8031 126.795C35.8031 128.204 36.6758 128.775 38.6895 129.648L39.8641 130.151C43.858 131.863 46.1068 133.608 46.1068 137.535C46.1068 141.764 42.7842 144.08 38.3203 144.08C33.9572 144.08 31.1379 141.999 29.7619 139.28Z" fill="#323330"/>
</g>
<g clip-path="url(#clip1_0_66)">
<path d="M234.281 98H207.719C201.247 98 196 103.247 196 109.719V136.281C196 142.753 201.247 148 207.719 148H234.281C240.753 148 246 142.753 246 136.281V109.719C246 103.247 240.753 98 234.281 98Z" fill="#F4F2ED"/>
<path d="M202.689 109.938L220.868 103.469L239.525 109.838L236.51 133.879L220.868 142.531L205.48 133.991L202.689 109.938Z" fill="#E23237"/>
<path d="M239.525 109.838L220.868 103.469V142.531L236.51 133.879L239.525 109.838Z" fill="#B52E31"/>
<path d="M220.896 108.034L209.568 133.229L213.796 133.144L216.078 127.451H226.21L228.69 133.188L232.721 133.273L220.896 108.034ZM220.924 116.122L224.757 124.127H217.582L220.935 116.122H220.924Z" fill="white"/>
</g>
<g clip-path="url(#clip2_0_66)">
<path d="M297.906 98H340.094C342.251 98 344 99.7488 344 101.906V144.094C344 146.251 342.251 148 340.094 148H297.906C295.749 148 294 146.251 294 144.094V101.906C294 99.7488 295.749 98 297.906 98Z" fill="#3178C6"/>
<path d="M323.398 137.155V142.55C324.275 142.999 325.313 143.337 326.511 143.561C327.709 143.786 328.971 143.898 330.299 143.898C331.592 143.898 332.821 143.775 333.985 143.528C335.149 143.28 336.17 142.873 337.047 142.305C337.924 141.738 338.619 140.996 339.131 140.08C339.643 139.164 339.898 138.032 339.898 136.683C339.898 135.706 339.752 134.849 339.46 134.112C339.171 133.381 338.741 132.714 338.194 132.149C337.643 131.575 336.982 131.061 336.212 130.606C335.442 130.151 334.573 129.721 333.605 129.317C332.897 129.024 332.261 128.741 331.699 128.465C331.137 128.19 330.658 127.909 330.265 127.622C329.871 127.336 329.567 127.032 329.354 126.712C329.14 126.392 329.033 126.029 329.033 125.625C329.033 125.254 329.129 124.92 329.32 124.622C329.511 124.324 329.781 124.068 330.13 123.855C330.479 123.641 330.906 123.475 331.412 123.357C331.918 123.239 332.481 123.18 333.099 123.18C333.549 123.18 334.024 123.214 334.525 123.281C335.025 123.349 335.529 123.453 336.035 123.593C336.54 123.733 337.033 123.911 337.511 124.124C337.975 124.33 338.418 124.578 338.836 124.866V119.826C338.014 119.511 337.117 119.278 336.145 119.126C335.172 118.974 334.055 118.898 332.796 118.898C331.513 118.898 330.299 119.036 329.151 119.312C328.004 119.587 326.995 120.017 326.123 120.601C325.251 121.186 324.562 121.93 324.056 122.835C323.55 123.739 323.297 124.821 323.297 126.08C323.297 127.687 323.761 129.058 324.689 130.193C325.617 131.328 327.025 132.289 328.915 133.076C329.613 133.36 330.304 133.658 330.99 133.969C331.631 134.262 332.185 134.565 332.652 134.879C333.119 135.194 333.487 135.537 333.757 135.908C334.027 136.279 334.162 136.7 334.162 137.172C334.164 137.512 334.077 137.846 333.909 138.142C333.74 138.439 333.484 138.698 333.141 138.917C332.798 139.136 332.371 139.307 331.859 139.431C331.347 139.555 330.748 139.617 330.062 139.617C328.893 139.617 327.734 139.412 326.587 139.001C325.439 138.591 324.377 137.976 323.398 137.155ZM314.407 123.731H321.344V119.289H302.008V123.731H308.911V143.508H314.407V123.731Z" fill="white"/>
</g>
<g clip-path="url(#clip3_0_66)">
<path d="M136.281 196H109.719C103.247 196 98 201.247 98 207.719V234.281C98 240.753 103.247 246 109.719 246H136.281C142.753 246 148 240.753 148 234.281V207.719C148 201.247 142.753 196 136.281 196Z" fill="#F4F2ED"/>
<path d="M142.531 231.73C141.963 231.945 141.335 231.945 140.767 231.729C140.198 231.513 139.729 231.096 139.447 230.557C137.677 227.907 135.722 225.377 133.844 222.792L133.029 221.706C130.792 224.704 128.555 227.581 126.513 230.568C126.247 231.083 125.803 231.484 125.264 231.695C124.724 231.907 124.126 231.916 123.581 231.719L131.976 220.458L124.167 210.282C124.729 210.079 125.344 210.076 125.908 210.274C126.472 210.472 126.95 210.858 127.263 211.368C129.076 214.018 131.085 216.548 133.083 219.23C135.092 216.57 137.08 214.029 138.937 211.4C139.204 210.894 139.648 210.503 140.185 210.303C140.722 210.103 141.313 210.107 141.847 210.314L138.817 214.333C137.46 216.124 136.124 217.927 134.712 219.676C134.598 219.777 134.507 219.902 134.445 220.042C134.383 220.181 134.35 220.332 134.35 220.485C134.35 220.637 134.383 220.788 134.445 220.928C134.507 221.067 134.598 221.192 134.712 221.294C137.308 224.736 139.881 228.19 142.531 231.73ZM103.469 220.316C103.697 219.23 103.838 218.047 104.153 216.939C106.032 210.26 113.688 207.48 118.955 211.618C122.039 214.04 122.81 217.471 122.658 221.337H105.282C105 228.244 109.985 232.414 116.359 230.286C117.393 229.916 118.319 229.294 119.053 228.477C119.786 227.66 120.305 226.673 120.562 225.605C120.899 224.519 121.442 224.335 122.473 224.649C122.303 225.971 121.836 227.238 121.106 228.353C120.376 229.469 119.403 230.404 118.26 231.089C116.371 232.122 114.203 232.532 112.067 232.259C109.932 231.986 107.937 231.044 106.368 229.569C104.817 227.824 103.878 225.62 103.697 223.292C103.697 222.923 103.556 222.554 103.48 222.206C103.473 221.576 103.469 220.946 103.469 220.316ZM105.304 219.849H121.018C120.92 214.843 117.76 211.292 113.547 211.26C108.855 211.194 105.5 214.669 105.293 219.828L105.304 219.849Z" fill="#0F0F0F"/>
</g>
<g clip-path="url(#clip4_0_66)">
<path d="M38.2812 294H11.7188C5.24666 294 0 299.247 0 305.719V332.281C0 338.753 5.24666 344 11.7188 344H38.2812C44.7533 344 50 338.753 50 332.281V305.719C50 299.247 44.7533 294 38.2812 294Z" fill="#F03C2E"/>
<mask id="mask0_0_66" style="mask-type:luminance" maskUnits="userSpaceOnUse" x="5" y="299" width="40" height="40">
<path d="M5.46875 299.469H44.5312V338.531H5.46875V299.469Z" fill="white"/>
</mask>
<g mask="url(#mask0_0_66)">
<path d="M43.794 317.261L26.7395 300.206C26.3878 299.854 25.9397 299.614 25.4517 299.517C24.9637 299.42 24.4578 299.47 23.9982 299.661C23.6931 299.787 23.4159 299.972 23.1824 300.206L19.6424 303.746L24.1346 308.238C25.1795 307.872 26.3758 308.122 27.2082 308.955C27.6045 309.352 27.8811 309.852 28.0065 310.399C28.1319 310.946 28.101 311.517 27.9174 312.047L32.2473 316.377C33.2947 316.015 34.5031 316.248 35.3393 317.087C35.7581 317.506 36.0433 318.039 36.1588 318.62C36.2742 319.201 36.2148 319.803 35.9879 320.35C35.6838 321.083 35.1008 321.666 34.3673 321.97C33.6337 322.273 32.8095 322.273 32.076 321.97C31.7127 321.819 31.3826 321.599 31.1047 321.321C30.2258 320.442 30.0086 319.148 30.4529 318.065L26.4149 314.027V324.653C26.708 324.798 26.9759 324.989 27.2082 325.22C27.7696 325.781 28.085 326.542 28.085 327.336C28.085 328.13 27.7696 328.892 27.2082 329.453C26.6468 330.014 25.8854 330.33 25.0915 330.33C24.2976 330.33 23.5362 330.014 22.9748 329.453C22.5558 329.034 22.2704 328.501 22.1548 327.92C22.0391 327.34 22.0984 326.737 22.3252 326.19C22.4757 325.827 22.6965 325.497 22.9748 325.22C23.2641 324.931 23.5852 324.713 23.9551 324.566V313.841C23.588 313.691 23.2547 313.469 22.9748 313.188C22.5545 312.768 22.2688 312.233 22.154 311.65C22.0392 311.067 22.1006 310.463 22.3303 309.915L17.8992 305.487L6.20489 317.169C5.85284 317.521 5.61306 317.969 5.51588 318.457C5.41871 318.946 5.46851 319.452 5.65899 319.911C5.78558 320.217 5.97107 320.494 6.20489 320.728L23.2606 337.781C23.4941 338.014 23.7713 338.2 24.0764 338.326C24.6928 338.581 25.3853 338.581 26.0018 338.326C26.3069 338.2 26.5841 338.014 26.8176 337.781L43.794 320.831C44.0277 320.598 44.2131 320.32 44.3397 320.015C44.4662 319.71 44.5314 319.383 44.5315 319.052C44.5315 318.722 44.4663 318.394 44.3398 318.089C44.2132 317.784 44.0278 317.506 43.794 317.273" fill="white"/>
</g>
</g>
<g clip-path="url(#clip5_0_66)">
<path d="M38.2812 196H11.7188C5.24666 196 0 201.247 0 207.719V234.281C0 240.753 5.24666 246 11.7188 246H38.2812C44.7533 246 50 240.753 50 234.281V207.719C50 201.247 44.7533 196 38.2812 196Z" fill="#F4F2ED"/>
<path d="M23.4137 202.077C24.3744 201.528 25.6256 201.525 26.5854 202.077C31.4139 204.806 36.2439 207.53 41.0717 210.26C41.9799 210.771 42.5871 211.782 42.5779 212.828V229.243C42.5848 230.333 41.9174 231.368 40.9594 231.868C36.1467 234.581 31.3363 237.298 26.5244 240.011C25.5441 240.572 24.2678 240.529 23.3178 239.922C21.875 239.086 20.4297 238.253 18.9867 237.418C18.6918 237.242 18.3594 237.102 18.1512 236.816C18.3354 236.568 18.6645 236.537 18.9318 236.429C19.534 236.237 20.0873 235.93 20.6404 235.631C20.7805 235.536 20.9512 235.572 21.0854 235.658C22.3191 236.365 23.5422 237.094 24.7801 237.794C25.0441 237.947 25.3115 237.744 25.5373 237.618C30.26 234.949 34.9885 232.29 39.7105 229.62C39.8855 229.536 39.9822 229.35 39.968 229.158C39.9713 223.743 39.9688 218.328 39.9697 212.912C39.9896 212.695 39.8639 212.495 39.6672 212.406C34.8713 209.705 30.0775 207 25.2824 204.299C25.1994 204.241 25.101 204.211 25.0002 204.211C24.8993 204.21 24.8008 204.241 24.7176 204.298C19.9223 207 15.1297 209.708 10.3344 212.408C10.1385 212.498 10.007 212.694 10.0303 212.912C10.0313 218.328 10.0303 223.743 10.0303 229.159C10.022 229.253 10.0425 229.347 10.0892 229.428C10.1358 229.51 10.2063 229.575 10.2912 229.615C11.5707 230.341 12.852 231.061 14.1324 231.784C14.8539 232.172 15.7395 232.403 16.5344 232.106C17.2355 231.854 17.7271 231.138 17.7139 230.394C17.7205 225.011 17.7105 219.626 17.7188 214.244C17.7012 214.005 17.9279 213.807 18.1604 213.83C18.7752 213.826 19.3908 213.821 20.0057 213.831C20.2623 213.826 20.4389 214.083 20.4072 214.324C20.4047 219.741 20.4139 225.159 20.4031 230.576C20.4047 232.02 19.8115 233.591 18.476 234.298C16.8309 235.15 14.7973 234.969 13.1719 234.152C11.7648 233.45 10.4219 232.621 9.03985 231.868C8.0793 231.371 7.41524 230.332 7.42207 229.244V212.828C7.41192 211.76 8.04356 210.731 8.97969 210.227C13.7916 207.512 18.6027 204.794 23.4137 202.077Z" fill="#81CD39"/>
<path d="M27.6117 213.448C29.7103 213.313 31.957 213.368 33.8455 214.402C35.3078 215.194 36.1184 216.857 36.1441 218.482C36.1033 218.701 35.8742 218.821 35.665 218.806C35.0562 218.806 34.4471 218.815 33.8383 218.802C33.5799 218.812 33.4299 218.574 33.3975 218.346C33.2225 217.569 32.7984 216.799 32.067 216.424C30.9439 215.862 29.642 215.89 28.4172 215.902C27.5234 215.949 26.5621 216.027 25.8047 216.552C25.2232 216.95 25.0467 217.754 25.2541 218.402C25.4498 218.867 25.9863 219.017 26.4254 219.155C28.9547 219.816 31.6348 219.75 34.1154 220.621C35.1428 220.976 36.1475 221.666 36.499 222.741C36.959 224.183 36.7574 225.905 35.7318 227.062C34.9002 228.014 33.6891 228.533 32.4811 228.814C30.874 229.173 29.2062 229.182 27.5742 229.023C26.0396 228.848 24.4426 228.445 23.258 227.399C22.2449 226.519 21.7502 225.149 21.7992 223.826C21.8109 223.603 22.0334 223.447 22.2475 223.465C22.8605 223.46 23.4738 223.458 24.0869 223.466C24.3318 223.448 24.5135 223.66 24.526 223.891C24.6391 224.631 24.9174 225.409 25.5631 225.848C26.8094 226.652 28.3732 226.597 29.8002 226.619C30.9822 226.567 32.3094 226.551 33.2742 225.77C33.7832 225.324 33.934 224.578 33.7965 223.937C33.6475 223.395 33.0809 223.143 32.5943 222.978C30.0977 222.188 27.3875 222.475 24.915 221.581C23.9111 221.227 22.9404 220.556 22.5549 219.525C22.0168 218.065 22.2633 216.26 23.3963 215.142C24.501 214.03 26.0955 213.601 27.6117 213.448Z" fill="#81CD39"/>
</g>
<g clip-path="url(#clip6_0_66)">
<path d="M234.281 196H207.719C201.247 196 196 201.247 196 207.719V234.281C196 240.753 201.247 246 207.719 246H234.281C240.753 246 246 240.753 246 234.281V207.719C246 201.247 240.753 196 234.281 196Z" fill="#F4F2ED"/>
<path d="M229.432 217.014C227.374 207.936 223.085 205.519 221.991 203.81C221.54 203.058 221.14 202.275 220.795 201.469C220.737 202.275 220.631 202.783 219.945 203.395C218.569 204.622 212.723 209.386 212.231 219.701C211.773 229.318 219.301 235.249 220.296 235.862C221.061 236.238 221.992 235.87 222.447 235.524C226.076 233.034 231.034 226.393 229.436 217.014" fill="#10AA50"/>
<path d="M221.106 230.74C220.917 233.121 220.781 234.504 220.3 235.864C220.3 235.864 220.616 238.131 220.838 240.531H221.623C221.81 238.841 222.096 237.163 222.479 235.505C221.463 235.005 221.145 232.829 221.106 230.74Z" fill="#B8C4C2"/>
<path d="M222.478 235.507C221.451 235.032 221.154 232.81 221.108 230.74C221.362 227.326 221.436 223.9 221.33 220.478C221.276 218.682 221.355 203.845 220.887 201.673C221.207 202.409 221.576 203.122 221.991 203.809C223.085 205.519 227.376 207.936 229.432 217.014C231.034 226.377 226.103 233 222.478 235.507Z" fill="#12924F"/>
</g>
<g clip-path="url(#clip7_0_66)">
<path d="M38.2812 0H11.7188C5.24666 0 0 5.24666 0 11.7188V38.2812C0 44.7533 5.24666 50 11.7188 50H38.2812C44.7533 50 50 44.7533 50 38.2812V11.7188C50 5.24666 44.7533 0 38.2812 0Z" fill="#E14E1D"/>
<path d="M9.375 7.42188L11.0566 26.2877H32.6797L31.9541 34.3795L24.992 36.2619L18.043 34.3822L17.5783 29.1865H11.3164L12.2119 39.2023L24.9906 42.7516L37.7855 39.2023L39.501 20.0498H16.7625L16.1916 13.6611H40.0662L40.625 7.42188H9.375Z" fill="white"/>
<path d="M25 7.42188H9.375L11.0566 26.2877H25V20.0498H16.7625L16.1916 13.6611H25V7.42188ZM25 36.2592L24.992 36.2619L18.043 34.3822L17.5783 29.1865H11.3164L12.2119 39.2023L24.9906 42.7516L25.0002 42.7488L25 36.2592Z" fill="#EBEBEB"/>
</g>
<g clip-path="url(#clip8_0_66)">
<path d="M136.281 0H109.719C103.247 0 98 5.24666 98 11.7188V38.2812C98 44.7533 103.247 50 109.719 50H136.281C142.753 50 148 44.7533 148 38.2812V11.7188C148 5.24666 142.753 0 136.281 0Z" fill="#0277BD"/>
<path d="M108.499 20.049L109.058 26.2877H123.019V20.049H108.499ZM123.019 7.42188H107.375L107.942 13.6605H123.019V7.42188ZM123.019 42.7424V36.2516L122.991 36.2588L116.043 34.3828L115.599 29.407H109.336L110.21 39.2027L122.99 42.7504L123.019 42.7424Z" fill="#EBEBEB"/>
<path d="M130.679 26.2877L129.955 34.3787L122.997 36.2568V42.7473L135.787 39.2027L135.88 38.1486L137.346 21.7244L137.499 20.049L138.625 7.42188H122.997V13.6605H131.788L131.22 20.049H122.997V26.2877H130.679Z" fill="white"/>
</g>
<path d="M123 120.187C125.006 120.187 126.633 118.561 126.633 116.555C126.633 114.548 125.006 112.922 123 112.922C120.994 112.922 119.367 114.548 119.367 116.555C119.367 118.561 120.994 120.187 123 120.187Z" fill="#61DAFB"/>
<path d="M123 129.914C125.852 132.688 128.664 134.328 130.93 134.328C131.672 134.328 132.375 134.172 132.961 133.82C134.992 132.648 135.734 129.719 135.031 125.539C134.914 124.797 134.758 124.055 134.562 123.273C135.344 123.039 136.047 122.805 136.75 122.57C140.695 121.047 142.883 118.938 142.883 116.633C142.883 114.289 140.695 112.18 136.75 110.695C136.047 110.422 135.344 110.188 134.562 109.992C134.758 109.211 134.914 108.469 135.031 107.727C135.695 103.469 134.953 100.5 132.922 99.3281C132.336 98.9766 131.633 98.8203 130.891 98.8203C128.664 98.8203 125.813 100.461 122.961 103.234C120.148 100.461 117.336 98.8203 115.07 98.8203C114.328 98.8203 113.625 98.9766 113.039 99.3281C111.008 100.5 110.266 103.43 110.969 107.609C111.086 108.352 111.242 109.094 111.438 109.875C110.656 110.109 109.953 110.344 109.25 110.578C105.305 112.102 103.117 114.211 103.117 116.516C103.117 118.859 105.305 120.969 109.25 122.453C109.953 122.727 110.656 122.961 111.438 123.156C111.242 123.938 111.086 124.68 110.969 125.422C110.305 129.602 111.047 132.57 113.039 133.703C113.625 134.055 114.328 134.211 115.07 134.211C117.336 134.289 120.148 132.648 123 129.914ZM120.813 124.641C121.516 124.68 122.258 124.68 123 124.68C123.742 124.68 124.484 124.68 125.188 124.641C124.484 125.578 123.742 126.438 123 127.258C122.258 126.438 121.516 125.578 120.813 124.641ZM115.969 120.617C116.359 121.281 116.711 121.906 117.141 122.531C115.93 122.375 114.797 122.18 113.703 121.945C114.055 120.891 114.445 119.797 114.914 118.703C115.227 119.328 115.578 119.992 115.969 120.617ZM113.703 111.203C114.797 110.969 115.93 110.773 117.141 110.617C116.75 111.242 116.359 111.867 115.969 112.531C115.578 113.195 115.227 113.82 114.914 114.484C114.406 113.352 114.016 112.258 113.703 111.203ZM115.852 116.555C116.359 115.5 116.906 114.445 117.531 113.391C118.117 112.375 118.781 111.359 119.445 110.344C120.617 110.266 121.789 110.227 123 110.227C124.25 110.227 125.422 110.266 126.555 110.344C127.258 111.359 127.883 112.375 128.469 113.391C129.094 114.445 129.641 115.5 130.148 116.555C129.641 117.609 129.094 118.664 128.469 119.719C127.883 120.734 127.219 121.75 126.555 122.766C125.383 122.844 124.211 122.883 123 122.883C121.75 122.883 120.578 122.844 119.445 122.766C118.742 121.75 118.117 120.734 117.531 119.719C116.906 118.664 116.359 117.609 115.852 116.555ZM131.125 114.445L130.07 112.492C129.68 111.828 129.328 111.203 128.898 110.578C130.109 110.734 131.242 110.93 132.336 111.164C131.984 112.258 131.594 113.352 131.125 114.445ZM131.125 118.664C131.594 119.758 131.984 120.852 132.336 121.906C131.242 122.141 130.109 122.336 128.898 122.492C129.289 121.867 129.68 121.242 130.07 120.578C130.422 119.992 130.773 119.328 131.125 118.664ZM132.023 132.219C131.711 132.414 131.32 132.492 130.891 132.492C128.977 132.492 126.594 130.93 124.25 128.586C125.383 127.375 126.477 126.008 127.57 124.484C129.406 124.328 131.164 124.055 132.805 123.664C133 124.367 133.117 125.07 133.234 125.773C133.781 129.094 133.352 131.477 132.023 132.219ZM134.055 111.633C138.43 112.883 141.047 114.797 141.047 116.555C141.047 118.078 139.25 119.602 136.086 120.813C135.461 121.047 134.758 121.281 134.055 121.477C133.547 119.875 132.922 118.234 132.141 116.555C132.922 114.875 133.586 113.234 134.055 111.633ZM130.93 100.617C131.359 100.617 131.711 100.695 132.062 100.891C133.352 101.633 133.82 103.977 133.273 107.336C133.156 108 133 108.703 132.844 109.445C131.203 109.094 129.445 108.82 127.609 108.625C126.555 107.102 125.422 105.734 124.289 104.523C126.633 102.219 129.016 100.617 130.93 100.617ZM125.188 108.469C124.484 108.43 123.742 108.43 123 108.43C122.258 108.43 121.516 108.43 120.813 108.469C121.516 107.531 122.258 106.672 123 105.852C123.742 106.672 124.484 107.57 125.188 108.469ZM113.977 100.891C114.289 100.695 114.68 100.617 115.109 100.617C117.023 100.617 119.406 102.18 121.75 104.523C120.617 105.734 119.523 107.102 118.43 108.625C116.594 108.781 114.836 109.055 113.195 109.445C113 108.742 112.883 108.039 112.766 107.336C112.219 104.016 112.648 101.672 113.977 100.891ZM111.945 121.477C107.57 120.227 104.953 118.312 104.953 116.555C104.953 115.031 106.75 113.508 109.914 112.297C110.539 112.062 111.242 111.828 111.945 111.633C112.453 113.234 113.078 114.875 113.859 116.555C113.078 118.234 112.414 119.914 111.945 121.477ZM112.766 125.773C112.883 125.109 113.039 124.406 113.195 123.664C114.836 124.016 116.594 124.289 118.43 124.484C119.484 126.008 120.617 127.375 121.75 128.586C119.406 130.891 117.023 132.492 115.109 132.492C114.68 132.492 114.328 132.414 113.977 132.219C112.648 131.477 112.219 129.094 112.766 125.773ZM111.125 141.867C111.984 140.812 112.023 139.641 111.555 138.469C111.086 137.297 110.109 136.75 108.898 136.711C107.453 136.672 105.969 136.711 104.523 136.711H104.25V146.828H105.422V143H107.258C107.492 143 107.688 143.078 107.805 143.273L110.148 146.906C110.188 146.984 110.305 147.102 110.383 147.102H111.906C110.969 145.656 110.07 144.289 109.133 142.883C109.953 142.766 110.656 142.492 111.125 141.867ZM105.422 141.789V137.922H105.852C106.75 137.922 107.688 137.883 108.586 137.961C109.641 138 110.383 138.82 110.383 139.875C110.383 140.93 109.523 141.75 108.469 141.789C107.531 141.828 106.594 141.789 105.422 141.789ZM120.539 142.297C119.914 139.562 117.414 138.859 115.5 139.719C114.016 140.383 113.352 141.672 113.312 143.273C113.273 144.484 113.625 145.578 114.562 146.398C115.617 147.336 116.906 147.453 118.234 147.219C118.977 147.062 119.641 146.711 120.148 146.164C119.953 145.891 119.758 145.617 119.562 145.383C118.469 146.32 117.258 146.633 115.93 146.008C115.07 145.578 114.641 144.523 114.562 143.742H120.617V143.234C120.656 142.883 120.617 142.57 120.539 142.297ZM114.641 142.922C114.523 141.75 115.695 140.5 116.984 140.5C118.469 140.461 119.406 141.359 119.445 142.922H114.641ZM126.633 139.523C126.047 139.406 125.422 139.367 124.836 139.406C123.898 139.484 123.078 139.914 122.414 140.617C122.609 140.891 122.766 141.164 123 141.477C123.078 141.398 123.156 141.32 123.234 141.281C123.859 140.695 124.602 140.383 125.5 140.461C126.203 140.5 126.867 140.734 127.063 141.438C127.219 141.984 127.18 142.57 127.219 143.156C127.102 143.156 127.063 143.117 127.023 143.078C126.086 142.297 125.031 142.141 123.898 142.414C122.844 142.688 122.18 143.508 122.102 144.562C122.023 145.773 122.57 146.672 123.625 147.102C124.289 147.375 125.031 147.375 125.734 147.219C126.281 147.102 126.516 146.789 127.297 146.359V146.867H128.391C128.391 145.305 128.43 143.391 128.391 141.594C128.391 140.461 127.727 139.758 126.633 139.523ZM127.18 144.445C127.141 144.562 127.18 144.68 127.18 144.797C127.18 145.617 126.984 145.891 126.203 146.203C125.656 146.398 125.07 146.477 124.484 146.281C123.82 146.086 123.352 145.5 123.352 144.836C123.313 144.172 123.742 143.508 124.406 143.312C125.305 143 126.125 143.195 126.867 143.742C127.102 143.938 127.258 144.133 127.18 144.445ZM133.273 140.578C134.289 140.266 135.227 140.461 135.93 141.32L136.047 141.398C136.32 141.164 136.555 140.93 136.867 140.656C136.75 140.539 136.711 140.461 136.633 140.344C135.5 139.133 133.273 138.977 131.906 139.953C129.992 141.359 130.031 144.094 130.969 145.539C131.867 146.906 133.156 147.375 134.68 147.18C135.578 147.062 136.32 146.633 136.906 145.891C136.633 145.656 136.359 145.422 136.086 145.148C136.008 145.227 135.969 145.266 135.93 145.344C134.875 146.516 133.117 146.398 132.18 145.148C131.633 144.406 131.516 143.547 131.672 142.688C131.75 141.711 132.258 140.93 133.273 140.578ZM141.398 145.891C141.32 145.93 141.281 145.969 141.281 145.969C140.969 146.203 140.656 146.242 140.305 146.125C139.953 145.969 139.914 145.656 139.875 145.344V140.891C139.875 140.812 139.875 140.969 139.914 140.578H141.398V139.406H139.836V137.453H138.664V139.562H137.648C137.57 139.562 137.453 139.641 137.453 139.719C137.414 139.992 137.453 140.188 137.453 140.578H138.703V145.578C138.703 146.203 138.859 146.75 139.406 147.062C139.992 147.414 141.125 147.336 141.633 146.906C141.711 146.867 141.75 146.711 141.75 146.672C141.633 146.438 141.516 146.164 141.398 145.891Z" fill="#61DAFB"/>
<path d="M297.509 226.5C297.143 226.596 296.62 226.898 296.373 227.159L296.13 227.404L296.063 226.54H295.167L295.146 229.672L295.131 232.81H296.151L296.18 230.769C296.213 228.466 296.254 228.248 296.689 227.803C297.006 227.48 297.502 227.301 297.936 227.35C298.301 227.391 298.556 227.555 298.749 227.884C298.879 228.104 298.886 228.261 298.908 230.461L298.928 232.81H299.948L299.968 230.632C299.988 228.543 299.995 228.446 300.14 228.171C300.67 227.193 302.07 227.043 302.53 227.912C302.668 228.171 302.675 228.316 302.696 230.495L302.723 232.81H303.681L303.659 230.255L303.639 227.705L303.446 227.343C303.019 226.534 301.84 226.219 300.864 226.644C300.704 226.714 300.401 226.939 300.188 227.137C299.831 227.474 299.795 227.495 299.721 227.371C299.541 227.063 299.245 226.788 298.948 226.645C298.596 226.486 297.853 226.405 297.509 226.5Z" fill="#F4F2ED"/>
<path d="M306.091 226.507C305.258 226.684 304.452 227.28 304.135 227.966C303.646 229.001 303.666 230.488 304.183 231.493C304.707 232.521 306.064 233.111 307.296 232.857C308.979 232.501 309.763 231.329 309.645 229.35C309.625 229.007 309.563 228.576 309.502 228.378C309.268 227.631 308.593 226.932 307.834 226.65C307.386 226.48 306.546 226.412 306.091 226.507ZM307.504 227.494C308.24 227.836 308.599 228.542 308.593 229.658C308.586 230.789 308.255 231.494 307.566 231.844C307.104 232.082 306.333 232.089 305.905 231.871C305.61 231.714 305.258 231.357 305.092 231.041C304.782 230.445 304.768 229.055 305.065 228.419C305.395 227.699 305.941 227.343 306.704 227.336C307.036 227.33 307.243 227.37 307.504 227.494ZM312.147 226.527C311.657 226.671 311.361 226.835 311.078 227.123C310.927 227.274 310.782 227.397 310.755 227.397C310.727 227.397 310.7 227.199 310.7 226.952V226.5L310.272 226.52L309.839 226.54L309.818 229.671L309.804 232.809H310.838V230.837C310.845 228.754 310.878 228.412 311.154 228C311.347 227.698 311.864 227.411 312.319 227.35C312.973 227.26 313.642 227.638 313.793 228.185C313.842 228.357 313.869 229.253 313.869 230.632V232.809H314.909L314.888 230.357L314.868 227.912L314.688 227.528C314.482 227.096 314.172 226.815 313.683 226.623C313.256 226.459 312.546 226.411 312.147 226.527ZM317.174 226.5C316.135 226.727 315.398 227.514 315.109 228.7C314.978 229.226 314.998 230.227 315.142 230.72C315.564 232.173 316.5 232.893 317.857 232.796C318.38 232.755 318.836 232.577 319.186 232.269C319.42 232.063 319.442 232.056 319.483 232.186C319.552 232.412 319.442 233.295 319.31 233.597C319.049 234.187 318.532 234.454 317.664 234.454C316.886 234.447 316.361 234.159 316.238 233.659C316.204 233.529 316.135 233.495 315.88 233.46C315.721 233.443 315.562 233.418 315.405 233.385C315.261 233.358 315.245 233.379 315.245 233.646C315.252 234.303 315.748 234.879 316.548 235.153C316.9 235.277 317.154 235.311 317.691 235.311C318.932 235.311 319.786 234.872 320.199 234.029C320.509 233.405 320.558 232.679 320.536 229.35L320.515 226.541H319.62L319.599 226.898C319.586 227.096 319.559 227.26 319.539 227.26C319.516 227.26 319.393 227.165 319.255 227.048C318.732 226.59 317.837 226.356 317.175 226.5L317.174 226.5ZM318.532 227.5C318.726 227.604 318.973 227.788 319.076 227.925C319.848 228.932 319.702 231.007 318.807 231.651C317.933 232.282 316.714 231.939 316.28 230.946C316.059 230.439 316.004 229.289 316.177 228.666C316.307 228.164 316.678 227.685 317.1 227.466C317.471 227.267 318.091 227.28 318.532 227.5ZM322.857 226.534C322.287 226.698 322.114 226.781 321.735 227.069C320.998 227.618 320.654 228.459 320.661 229.691C320.661 230.589 320.798 231.131 321.171 231.707C321.667 232.467 322.514 232.893 323.546 232.9C324.739 232.906 325.682 232.377 326.158 231.439L326.398 230.96L326.612 231.398C327.391 233.036 329.829 233.433 331.214 232.159C331.434 231.96 331.675 231.68 331.745 231.55C331.821 231.412 331.895 231.302 331.915 231.302C331.938 231.302 332.012 231.446 332.081 231.631C332.427 232.454 333.28 232.906 334.499 232.899C335.209 232.899 335.732 232.769 336.208 232.467C336.491 232.289 336.945 231.781 336.945 231.637C336.945 231.611 336.979 231.501 337.021 231.399L337.089 231.206L337.288 231.55C338.151 233.057 340.555 233.392 341.862 232.193C342.201 231.878 342.662 231.064 342.552 230.96C342.518 230.927 342.284 230.87 342.029 230.843L341.575 230.782L341.463 231.014C341.153 231.658 340.713 231.981 340.045 232.036C338.991 232.132 338.198 231.48 337.991 230.364C337.957 230.166 337.944 229.987 337.964 229.966C337.984 229.946 339.053 229.932 340.333 229.932H342.661V229.563C342.661 229.089 342.572 228.623 342.381 228.117C342.159 227.527 341.485 226.871 340.872 226.644C340.21 226.397 339.294 226.412 338.64 226.678C337.545 227.123 336.882 228.234 336.875 229.611V230.083L336.601 229.843C336.304 229.597 335.713 229.357 334.776 229.111C333.727 228.837 333.377 228.699 333.191 228.486C332.991 228.248 332.977 228.09 333.121 227.816C333.28 227.5 333.72 227.33 334.376 227.33C335.126 227.33 335.463 227.5 335.705 227.994C335.842 228.274 335.905 228.342 336.015 228.322C336.17 228.295 336.326 228.272 336.482 228.254C336.869 228.207 336.898 228.104 336.642 227.562C336.305 226.842 335.526 226.473 334.363 226.48C333.817 226.486 333.59 226.513 333.267 226.644C332.564 226.911 332.164 227.384 332.061 228.076L332.012 228.391L331.799 227.98C330.725 225.924 327.528 225.966 326.571 228.048L326.398 228.425L326.158 227.946C325.854 227.343 325.379 226.918 324.732 226.671C324.16 226.452 323.361 226.396 322.857 226.534ZM324.393 227.508C325.103 227.857 325.455 228.57 325.455 229.658C325.448 231.165 324.752 232.056 323.58 232.056C322.864 232.056 322.265 231.658 321.941 230.981C321.77 230.612 321.755 230.522 321.755 229.659C321.755 228.651 321.831 228.364 322.231 227.897C322.707 227.337 323.684 227.159 324.393 227.508ZM329.877 227.432C330.209 227.568 330.655 227.98 330.814 228.289C331.118 228.878 331.165 230.111 330.918 230.83C330.78 231.235 330.402 231.68 330.036 231.858C329.416 232.173 328.52 232.07 328.011 231.624C327.171 230.891 327.067 228.837 327.831 227.953C328.307 227.391 329.222 227.166 329.877 227.432ZM340.54 227.46C341.086 227.693 341.491 228.248 341.512 228.788L341.525 229.076H338.014L338.034 228.871C338.081 228.295 338.48 227.755 339.046 227.474C339.418 227.287 340.127 227.28 340.54 227.46ZM332.578 229.398C332.854 229.652 333.24 229.802 334.466 230.13C335.05 230.288 335.609 230.475 335.705 230.543C336.298 230.967 335.988 231.789 335.153 231.989C334.657 232.104 333.983 232.043 333.584 231.838C333.307 231.701 333.224 231.604 333.053 231.242L332.847 230.817L332.034 230.898L332.082 230.576C332.102 230.398 332.124 229.926 332.124 229.528V228.802L332.254 229.008C332.322 229.118 332.468 229.296 332.578 229.398ZM321.254 205.861C320.625 205.886 319.567 206.054 319.567 206.125C319.567 206.155 320.314 206.529 320.37 206.529C320.424 206.529 321.291 206.962 321.482 207.082C321.735 207.242 321.914 207.389 321.862 207.389C321.828 207.389 320.937 207.045 320.6 206.899C320.326 206.782 319.184 206.443 318.627 206.311C318.328 206.242 318.201 206.215 317.689 206.122C316.934 205.983 316.048 205.976 315.661 206.103C315.109 206.283 314.985 206.503 314.985 207.317C314.985 207.764 315.007 207.955 315.105 208.359C315.146 208.534 315.266 208.919 315.324 209.05C315.339 209.09 315.391 209.217 315.436 209.331C315.481 209.443 315.616 209.73 315.736 209.966C316.409 211.298 317.415 212.411 318.834 213.389C319.28 213.696 320.499 214.279 320.986 214.418C321.11 214.452 321.152 214.523 321.051 214.523C320.937 214.523 319.909 214.238 319.698 214.148C319.617 214.114 319.536 214.081 319.454 214.052C318.722 213.755 317.787 213.148 317.013 212.457C316.165 211.702 315.488 210.776 315.025 209.74C314.729 209.072 314.528 208.291 314.479 207.612C314.448 207.224 314.418 207.129 314.316 207.134C314.282 207.134 313.964 207.123 313.609 207.104C312.653 207.063 311.342 207.168 310.047 207.392C307.568 207.813 304.894 208.789 302.141 210.276C301.683 210.523 301.23 210.78 300.784 211.048C300.732 211.078 300.567 211.178 300.416 211.273C300.266 211.366 300.089 211.471 300.025 211.511C299.883 211.593 298.31 212.662 298.122 212.804C298.051 212.856 297.854 213.002 297.69 213.12C296.943 213.675 295.316 215 295.223 215.134C295.177 215.202 295.248 215.236 295.346 215.202C295.395 215.183 295.522 215.158 295.624 215.142C295.729 215.127 296 215.056 296.225 214.982C296.406 214.924 296.588 214.869 296.771 214.817C297.326 214.687 297.551 214.641 297.878 214.594C298.024 214.573 298.242 214.541 298.366 214.523C299.892 214.297 300.62 214.241 301.298 214.294C302.775 214.414 304.188 214.663 304.996 214.951C305.6 215.168 306.831 215.833 307.373 216.233C307.685 216.468 308.691 217.47 308.912 217.772C309.085 218.011 309.276 218.22 309.322 218.22C309.336 218.22 309.356 217.457 309.359 216.528L309.37 214.839L311.346 214.828C312.9 214.821 313.332 214.833 313.359 214.867C313.396 214.914 313.486 215.075 313.782 215.623C314.066 216.15 314.204 216.404 314.29 216.558C314.335 216.64 314.439 216.834 314.528 216.986C314.609 217.141 314.763 217.424 314.868 217.618C314.973 217.813 315.059 217.977 315.059 217.984C315.059 218.018 315.213 218.22 315.241 218.22C315.256 218.22 315.293 218.163 315.319 218.101C315.349 218.033 315.428 217.884 315.491 217.772C315.559 217.659 315.679 217.439 315.762 217.286C315.845 217.132 315.959 216.921 316.018 216.819C316.184 216.524 316.356 216.203 316.498 215.942C316.57 215.807 316.684 215.598 316.749 215.474C316.817 215.351 316.915 215.177 316.968 215.082C317.006 215.007 317.049 214.936 317.097 214.867C317.125 214.833 317.569 214.821 319.169 214.828L321.202 214.839L321.211 218.138C321.22 220.737 321.23 221.432 321.269 221.432C321.291 221.428 321.442 221.342 321.596 221.234C321.813 221.081 321.907 220.988 322.007 220.816C322.238 220.424 322.886 219.808 323.323 219.569C323.852 219.276 324.422 219.062 325.013 218.934C325.614 218.807 325.79 218.789 327.154 218.739C329.643 218.653 330.012 218.637 330.031 218.619C330.041 218.609 330.007 218.511 329.96 218.399C329.907 218.291 329.816 218.089 329.753 217.955C329.516 217.442 329.516 217.271 329.763 217.02C329.932 216.846 330.368 216.692 331.116 216.543C331.24 216.516 331.394 216.484 331.459 216.46C331.521 216.441 331.601 216.428 331.634 216.428C331.728 216.428 332.476 216.243 332.634 216.184C332.742 216.14 333.328 216.013 334.027 215.878C334.33 215.818 335.12 215.661 335.773 215.53C336.186 215.449 336.618 215.362 336.73 215.341C336.843 215.317 337.004 215.285 337.087 215.27C337.17 215.251 337.279 215.229 337.331 215.22C337.383 215.209 337.648 215.158 337.913 215.102C338.114 215.058 338.316 215.019 338.518 214.985C338.706 214.966 340.122 214.626 340.448 214.523C340.967 214.354 341.12 214.287 341.448 214.067C341.802 213.827 341.898 213.696 342.247 213.002C342.635 212.229 342.691 212.098 342.799 211.773C342.968 211.255 342.958 211.057 342.743 210.84C342.594 210.691 342.271 210.536 342.034 210.502C341.858 210.481 341.836 210.487 341.747 210.582C341.695 210.638 341.651 210.704 341.651 210.728C341.651 210.76 341.59 210.926 341.422 211.329C341.407 211.37 341.373 211.471 341.346 211.552C341.32 211.641 341.289 211.728 341.253 211.813C341.204 211.918 341.201 211.9 341.219 211.608C341.237 211.32 341.287 211.078 341.395 210.713C341.414 210.642 341.441 210.521 341.451 210.446L341.47 210.313L341.08 210.155C340.759 210.024 340.44 209.89 340.122 209.752C339.997 209.703 339.872 209.654 339.746 209.607C339.616 209.559 339.487 209.508 339.36 209.452C339.23 209.395 339.098 209.341 338.966 209.288C338.713 209.192 337.834 208.894 337.087 208.658C336.884 208.594 335.702 208.24 335.585 208.206C335.409 208.161 335.235 208.112 335.061 208.061C334.999 208.045 334.854 208.005 334.74 207.974C334.08 207.791 333.907 207.746 333.67 207.679C333.539 207.641 333.408 207.606 333.275 207.575C333.204 207.556 333.01 207.511 332.843 207.47C332.125 207.3 331.405 207.133 330.685 206.97C330.528 206.933 330.371 206.897 330.214 206.862C330.102 206.837 329.989 206.814 329.877 206.794C329.72 206.765 329.564 206.734 329.408 206.701C329.164 206.653 328.919 206.608 328.674 206.565C328.455 206.526 328.236 206.488 328.017 206.45C326.981 206.264 326.909 206.252 325.05 206.047C323.904 205.917 322.364 205.809 321.989 205.827C321.744 205.835 321.499 205.847 321.254 205.861M316.913 207.702C317.903 208.024 318.868 208.46 319.53 208.885C320.055 209.226 320.709 209.768 320.885 210.01L320.961 210.112L320.817 210.055C320.739 210.022 320.573 209.951 320.45 209.891C319.79 209.585 319.718 209.557 319.718 209.626C319.718 209.644 319.872 209.891 320.055 210.167C320.243 210.446 320.394 210.694 320.394 210.716C320.394 210.734 320.323 210.704 320.236 210.645C319.898 210.413 319.105 210.081 319.059 210.148C319.05 210.167 319.294 210.477 319.605 210.84C319.913 211.202 320.168 211.512 320.168 211.534C320.168 211.59 320.108 211.583 319.823 211.478C319.53 211.373 319.454 211.363 319.454 211.432C319.454 211.481 320.089 212.337 320.341 212.633C320.413 212.714 320.468 212.792 320.468 212.811C320.468 212.901 319.589 212.33 318.966 211.837C318.076 211.128 317.215 210.174 316.761 209.387C316.391 208.743 316.262 208.396 316.262 208.015C316.262 207.791 316.274 207.746 316.357 207.668C316.405 207.615 316.465 207.574 316.487 207.574C316.511 207.574 316.697 207.631 316.913 207.702ZM328.77 209.032C329.13 209.096 329.621 209.18 329.858 209.223C330.095 209.264 330.383 209.312 330.497 209.331C330.609 209.353 330.771 209.384 330.854 209.402C330.936 209.421 331.098 209.453 331.209 209.48C331.582 209.561 331.672 209.58 332.28 209.723C332.934 209.877 333.076 209.905 333.276 209.948C333.445 209.98 333.614 210.044 333.614 210.075C333.614 210.084 333.489 210.156 333.34 210.234C333.032 210.388 332.968 210.398 331.699 210.447C330.834 210.484 330.373 210.474 329.952 210.407C329.103 210.276 328.664 210.037 328.322 209.521C328.202 209.345 328.123 209.294 327.848 209.223C327.747 209.192 327.593 209.152 327.511 209.125C327.429 209.099 327.286 209.059 327.195 209.031C326.925 208.961 327.079 208.92 327.623 208.92C327.999 208.92 328.262 208.945 328.77 209.032ZM333.287 214.25C333.256 214.257 333.224 214.257 333.193 214.25C333.167 214.238 333.186 214.232 333.238 214.232C333.29 214.232 333.309 214.238 333.287 214.25ZM333.124 214.294C333.124 214.312 333.08 214.339 333.023 214.35C332.78 214.416 332.538 214.486 332.298 214.56C332.246 214.579 332.078 214.631 331.924 214.675C331.536 214.786 330.598 215.093 330.346 215.189C329.873 215.369 328.761 215.96 328.604 216.116C328.371 216.345 328.299 216.592 328.332 217.062C328.344 217.259 328.371 217.509 328.393 217.618C328.437 217.853 328.412 217.918 328.322 217.801C328.231 217.686 328.039 217.268 327.983 217.062C327.953 216.968 327.919 216.846 327.9 216.785C327.832 216.573 327.86 216.322 327.965 216.168C328.107 215.952 328.618 215.605 329.22 215.317C329.504 215.179 330.334 214.895 331.098 214.671C331.252 214.626 331.42 214.573 331.472 214.56C332.014 214.377 333.124 214.201 333.124 214.294ZM321.245 214.545C321.235 214.555 321.201 214.56 321.174 214.548C321.144 214.536 321.155 214.526 321.196 214.526C321.239 214.522 321.261 214.533 321.245 214.545Z" fill="#F4F2ED"/>
<path d="M313.369 221.769V224.383H315.24C316.645 224.383 317.122 224.371 317.155 224.337C317.212 224.281 317.223 219.154 317.168 219.154C317.149 219.154 317.122 219.183 317.11 219.216C317.096 219.25 316.686 219.888 316.198 220.636C315.425 221.816 315.21 222.104 315.21 221.958C315.21 221.932 313.93 219.935 313.603 219.452C313.558 219.389 313.519 219.323 313.486 219.254C313.455 219.197 313.418 219.154 313.4 219.154C313.384 219.154 313.369 220.331 313.369 221.769Z" fill="#F4F2ED"/>
<g clip-path="url(#clip9_0_66)">
<path d="M394.881 129.615C393.855 126.421 393.561 123.049 394.152 119.579C394.408 118.14 394.803 116.759 395.236 115.36C395.236 115.36 397.957 106.429 407.164 102.348C407.164 102.348 410.338 100.672 415.109 100.555C415.109 100.555 414.459 99.9231 414.045 99.6469C411.797 98.1485 408.446 97.6555 406.415 99.766C405.803 100.396 405.29 101.087 404.72 101.718C404.068 102.427 403.279 103.019 402.373 103.353C401.584 103.649 400.795 103.59 399.988 103.729C399.16 103.866 398.311 104.162 397.641 104.695C396.912 105.287 396.616 106.074 396.538 106.982C396.459 107.691 396.479 108.421 396.439 109.13C396.34 111.221 395.67 111.811 394.172 112.975C393.541 113.448 393.009 114.079 392.613 114.75C391.431 116.839 393.324 119.007 393.422 121.118C393.442 121.551 393.402 121.984 393.245 122.399C393.086 122.852 392.772 123.148 392.516 123.522C392.16 124.016 391.924 124.607 392.023 125.218C392.121 125.83 392.437 126.402 392.733 126.934C393.305 127.88 394.014 128.727 394.764 129.536C394.803 129.536 394.842 129.575 394.881 129.615" fill="#E32186"/>
<path d="M432.5 137.184C437.035 135.212 438.967 131.802 438.967 131.802C443.206 126.025 441.767 119.934 441.767 119.934C439.066 125.808 436.6 127.426 436.6 127.426C443.245 117.311 436.64 111.2 436.64 111.2C439.341 116.957 435.753 123.974 435.753 123.974C432.736 130.323 428.458 132.591 428.458 132.591C433.229 133.478 436.739 130.264 436.739 130.264C429.897 137.657 422.484 137.303 422.484 137.303C425.6 140.793 430.272 140.497 430.272 140.497C424.161 141.936 418.424 139.905 413.712 135.981C412.819 135.25 411.976 134.46 411.188 133.616C411.188 133.616 410.479 132.867 410.339 132.67L410.32 132.651C410.222 136.297 414.026 139.688 414.026 139.688C409.255 137.717 407.067 133.438 407.067 133.438C407.067 133.438 403.853 127.957 406.18 121.709C408.505 115.459 415.545 114.117 415.545 114.117C421.361 116.938 426.29 117.824 426.29 117.824C436.68 119.559 436.089 114.473 436.089 114.473C436.187 110.095 429.583 105.443 429.583 105.443C417.812 96.7086 407.166 102.347 407.166 102.347C397.959 106.429 395.238 115.359 395.238 115.359C394.805 116.759 394.41 118.139 394.154 119.578C393.148 125.435 394.666 130.974 397.959 135.904C403.084 143.553 411.405 146.195 411.405 146.195C423.727 150.374 432.145 144.223 432.145 144.223C439.893 138.899 441.451 132.748 441.451 132.748C435.201 137.639 432.5 137.184 432.5 137.184L432.5 137.184ZM422.879 108.419C423.019 108.419 423.158 108.446 423.287 108.499C423.417 108.553 423.534 108.631 423.633 108.73C423.732 108.829 423.81 108.947 423.864 109.076C423.917 109.206 423.944 109.344 423.943 109.484C423.944 109.624 423.916 109.763 423.863 109.892C423.81 110.021 423.731 110.139 423.633 110.238C423.534 110.336 423.416 110.415 423.287 110.468C423.158 110.521 423.019 110.548 422.879 110.548C422.739 110.548 422.601 110.521 422.471 110.468C422.342 110.415 422.224 110.337 422.125 110.238C422.026 110.139 421.948 110.022 421.894 109.892C421.841 109.763 421.814 109.624 421.814 109.484C421.813 109.344 421.841 109.205 421.894 109.076C421.947 108.946 422.026 108.829 422.125 108.73C422.224 108.631 422.341 108.552 422.471 108.499C422.6 108.446 422.739 108.418 422.879 108.419Z" fill="url(#paint0_linear_0_66)"/>
<path d="M436.066 114.454C436.164 110.076 429.56 105.423 429.56 105.423C417.789 96.709 407.143 102.347 407.143 102.347C397.936 106.429 395.216 115.36 395.216 115.36C394.683 116.878 394.21 119.205 394.21 119.205C393.638 122.123 393.894 124.823 393.894 124.823C394.131 127.407 394.703 129.142 394.703 129.142C395.295 130.994 395.57 131.566 395.57 131.566C395.551 131.507 395.452 131.073 395.452 131.073C395.452 131.073 394.623 127.091 395.393 123.266C395.393 123.266 396.062 119.283 398.785 116.209C398.785 116.209 403.201 109.919 411.422 112.383C411.422 112.383 413.197 113.015 413.807 113.329C414.419 113.625 415.483 114.079 415.483 114.079C421.299 116.898 426.228 117.785 426.228 117.785C436.657 119.539 436.067 114.454 436.067 114.454L436.066 114.454ZM422.877 110.569C422.737 110.569 422.598 110.542 422.468 110.489C422.339 110.436 422.221 110.358 422.122 110.259C422.023 110.16 421.945 110.042 421.891 109.913C421.838 109.784 421.811 109.645 421.811 109.505C421.811 109.365 421.838 109.226 421.891 109.097C421.944 108.967 422.023 108.849 422.122 108.75C422.221 108.651 422.339 108.573 422.468 108.52C422.598 108.466 422.736 108.439 422.877 108.44C423.016 108.439 423.155 108.467 423.285 108.52C423.414 108.573 423.531 108.652 423.63 108.751C423.729 108.85 423.808 108.967 423.861 109.097C423.914 109.226 423.941 109.365 423.94 109.505C423.941 109.645 423.914 109.783 423.86 109.913C423.807 110.042 423.729 110.16 423.63 110.258C423.531 110.357 423.414 110.436 423.284 110.489C423.155 110.542 423.016 110.569 422.877 110.569Z" fill="url(#paint1_radial_0_66)"/>
<path d="M416.135 106.528L409.412 104.437C409.372 104.437 409.175 104.338 408.82 104.437C408.82 104.437 404.857 105.443 405.547 107.611C405.547 107.611 405.962 108.973 407.085 110.293L414.478 109.938L416.135 106.528Z" fill="url(#paint2_linear_0_66)"/>
</g>
<g clip-path="url(#clip10_0_66)">
<path d="M139.281 294H112.719C106.247 294 101 299.247 101 305.719V332.281C101 338.753 106.247 344 112.719 344H139.281C145.753 344 151 338.753 151 332.281V305.719C151 299.247 145.753 294 139.281 294Z" fill="#FF6C37"/>
<path d="M134.02 311.307L124.149 321.178L121.365 318.395C131.072 308.687 132.032 309.529 134.02 311.307Z" fill="#EEEEEE"/>
<path d="M124.149 321.412C124.078 321.412 124.032 321.389 123.985 321.342L121.178 318.558C121.156 318.537 121.138 318.512 121.126 318.484C121.114 318.456 121.108 318.425 121.108 318.395C121.108 318.364 121.114 318.334 121.126 318.306C121.138 318.278 121.156 318.252 121.178 318.231C131.049 308.36 132.078 309.295 134.16 311.167C134.207 311.213 134.23 311.26 134.23 311.33C134.23 311.401 134.207 311.447 134.16 311.494L124.289 321.342C124.266 321.389 124.195 321.412 124.149 321.412ZM121.692 318.395L124.149 320.851L133.669 311.33C131.938 309.787 130.768 309.319 121.692 318.395Z" fill="#FF6C37"/>
<path d="M126.979 324.009L124.289 321.319L134.16 311.448C136.804 314.114 132.85 318.442 126.979 324.009Z" fill="#EEEEEE"/>
<path d="M126.979 324.243C126.909 324.243 126.862 324.219 126.815 324.172L124.125 321.482C124.078 321.436 124.078 321.389 124.078 321.319C124.078 321.248 124.102 321.202 124.149 321.155L134.02 311.284C134.041 311.262 134.066 311.244 134.094 311.232C134.123 311.22 134.153 311.214 134.183 311.214C134.214 311.214 134.244 311.22 134.273 311.232C134.301 311.244 134.326 311.262 134.347 311.284C134.646 311.56 134.882 311.897 135.039 312.273C135.197 312.648 135.272 313.052 135.26 313.459C135.213 316.055 132.265 319.354 127.166 324.172C127.096 324.219 127.026 324.243 126.979 324.243ZM124.616 321.319C126.113 322.839 126.745 323.447 126.979 323.681C130.909 319.939 134.721 316.102 134.745 313.459C134.768 312.851 134.535 312.243 134.137 311.775L124.616 321.319Z" fill="#FF6C37"/>
<path d="M121.412 318.465L123.4 320.453C123.447 320.5 123.447 320.547 123.4 320.594C123.377 320.617 123.377 320.617 123.353 320.617L119.236 321.506C119.026 321.529 118.839 321.389 118.792 321.178C118.768 321.061 118.815 320.945 118.886 320.874L121.271 318.488C121.318 318.441 121.388 318.418 121.412 318.465Z" fill="#EEEEEE"/>
<path d="M119.166 321.74C118.815 321.74 118.558 321.459 118.558 321.108C118.558 320.945 118.628 320.781 118.745 320.664L121.131 318.278C121.271 318.161 121.459 318.161 121.599 318.278L123.587 320.266C123.727 320.383 123.727 320.594 123.587 320.734C123.54 320.781 123.494 320.804 123.423 320.828L119.306 321.716C119.26 321.716 119.213 321.74 119.166 321.74ZM121.342 318.722L119.049 321.014C119.002 321.061 118.979 321.131 119.026 321.202C119.049 321.272 119.119 321.295 119.189 321.272L123.049 320.43L121.342 318.722Z" fill="#FF6C37"/>
<path d="M139.236 305.834C137.739 304.383 135.33 304.43 133.879 305.951C132.429 307.471 132.476 309.857 133.996 311.307C134.596 311.887 135.372 312.252 136.201 312.345C137.031 312.438 137.867 312.254 138.581 311.822L135.914 309.155L139.236 305.834Z" fill="#EEEEEE"/>
<path d="M136.616 312.594C134.394 312.594 132.593 310.793 132.593 308.57C132.593 306.348 134.394 304.547 136.616 304.547C137.645 304.547 138.651 304.945 139.4 305.67C139.447 305.717 139.47 305.763 139.47 305.833C139.47 305.904 139.447 305.951 139.4 305.997L136.242 309.155L138.721 311.635C138.815 311.728 138.815 311.869 138.721 311.962L138.675 312.009C138.067 312.383 137.341 312.594 136.616 312.594ZM136.616 305.038C134.651 305.038 133.061 306.629 133.084 308.594C133.084 310.559 134.675 312.149 136.64 312.126C137.178 312.126 137.716 312.009 138.207 311.752L135.751 309.319C135.704 309.272 135.681 309.225 135.681 309.155C135.681 309.085 135.704 309.038 135.751 308.991L138.885 305.857C138.254 305.319 137.458 305.038 136.616 305.038Z" fill="#FF6C37"/>
<path d="M139.306 305.904L139.26 305.857L135.914 309.155L138.558 311.798C138.815 311.635 139.072 311.448 139.283 311.237C139.637 310.89 139.919 310.476 140.113 310.019C140.306 309.562 140.406 309.071 140.409 308.575C140.411 308.079 140.314 307.588 140.125 307.129C139.936 306.67 139.658 306.254 139.306 305.904Z" fill="#EEEEEE"/>
<path d="M138.581 312.056C138.511 312.056 138.464 312.032 138.417 311.985L135.751 309.319C135.704 309.272 135.681 309.225 135.681 309.155C135.681 309.085 135.704 309.038 135.751 308.991L139.072 305.67C139.166 305.576 139.306 305.576 139.4 305.67L139.47 305.717C141.037 307.284 141.037 309.81 139.494 311.401C139.26 311.635 139.002 311.845 138.721 312.009C138.651 312.032 138.605 312.056 138.581 312.056ZM136.242 309.155L138.605 311.518C138.792 311.401 138.979 311.237 139.119 311.097C140.453 309.763 140.523 307.588 139.236 306.185L136.242 309.155Z" fill="#FF6C37"/>
<path d="M134.418 311.728C134.148 311.458 133.782 311.307 133.4 311.307C133.018 311.307 132.652 311.458 132.382 311.728L123.564 320.547L125.037 322.02L134.371 313.833C134.979 313.319 135.026 312.406 134.511 311.798C134.464 311.775 134.441 311.751 134.418 311.728Z" fill="#EEEEEE"/>
<path d="M125.014 322.254C124.944 322.254 124.897 322.231 124.85 322.184L123.377 320.711C123.354 320.689 123.337 320.664 123.325 320.636C123.313 320.608 123.306 320.577 123.306 320.547C123.306 320.516 123.313 320.486 123.325 320.458C123.337 320.43 123.354 320.404 123.377 320.383L132.195 311.564C132.35 311.409 132.534 311.285 132.737 311.201C132.94 311.116 133.157 311.073 133.376 311.073C133.596 311.073 133.813 311.116 134.016 311.201C134.219 311.285 134.403 311.409 134.558 311.564C134.714 311.719 134.837 311.903 134.921 312.106C135.006 312.309 135.049 312.526 135.049 312.746C135.049 312.965 135.006 313.183 134.921 313.385C134.837 313.588 134.714 313.772 134.558 313.927L134.488 313.997L125.154 322.184C125.131 322.231 125.084 322.254 125.014 322.254ZM123.891 320.547L125.038 321.693L134.207 313.646C134.722 313.225 134.768 312.453 134.347 311.939C133.926 311.424 133.154 311.377 132.64 311.798C132.616 311.821 132.593 311.845 132.546 311.868L123.891 320.547Z" fill="#FF6C37"/>
<path d="M116.804 330.582C116.71 330.629 116.663 330.722 116.686 330.816L117.084 332.5C117.178 332.734 117.037 333.015 116.78 333.085C116.593 333.155 116.383 333.085 116.266 332.945L113.692 330.395L122.09 321.997L124.991 322.044L126.955 324.009C126.488 324.407 123.657 327.143 116.804 330.582Z" fill="#EEEEEE"/>
<path d="M116.616 333.319C116.429 333.319 116.242 333.248 116.125 333.108L113.575 330.558C113.529 330.512 113.505 330.465 113.505 330.395C113.505 330.325 113.529 330.278 113.576 330.231L121.973 321.833C122.02 321.787 122.09 321.763 122.137 321.763L125.038 321.81C125.108 321.81 125.154 321.833 125.201 321.88L127.166 323.845C127.213 323.892 127.236 323.962 127.236 324.032C127.236 324.102 127.213 324.149 127.143 324.196L126.979 324.336C124.499 326.512 121.131 328.687 116.944 330.769L117.342 332.43C117.412 332.734 117.271 333.061 116.991 333.225C116.85 333.295 116.733 333.319 116.616 333.319ZM114.043 330.395L116.453 332.781C116.523 332.898 116.663 332.944 116.78 332.874C116.897 332.804 116.944 332.664 116.874 332.547L116.476 330.863C116.429 330.652 116.523 330.465 116.71 330.371C120.85 328.289 124.195 326.138 126.651 324.009L124.921 322.278L122.23 322.231L114.043 330.395Z" fill="#FF6C37"/>
<path d="M111.704 332.406L113.716 330.395L116.71 333.389L111.938 333.062C111.728 333.038 111.587 332.851 111.611 332.64C111.611 332.547 111.634 332.453 111.704 332.406Z" fill="#EEEEEE"/>
<path d="M116.71 333.599L111.915 333.272C111.564 333.248 111.33 332.945 111.353 332.594C111.377 332.453 111.423 332.313 111.54 332.219L113.552 330.208C113.573 330.185 113.599 330.168 113.627 330.156C113.655 330.144 113.685 330.137 113.716 330.137C113.746 330.137 113.777 330.144 113.805 330.156C113.833 330.168 113.858 330.185 113.879 330.208L116.874 333.202C116.944 333.272 116.967 333.365 116.92 333.459C116.874 333.553 116.803 333.599 116.71 333.599ZM113.716 330.722L111.868 332.57C111.798 332.617 111.798 332.734 111.868 332.781C111.891 332.804 111.915 332.828 111.962 332.828L116.102 333.108L113.716 330.722ZM121.271 323.073C121.131 323.073 121.037 322.956 121.037 322.839C121.037 322.769 121.061 322.722 121.108 322.676L123.377 320.407C123.398 320.384 123.423 320.367 123.451 320.355C123.479 320.343 123.51 320.336 123.54 320.336C123.571 320.336 123.601 320.343 123.629 320.355C123.658 320.367 123.683 320.384 123.704 320.407L125.178 321.88C125.248 321.95 125.271 322.021 125.248 322.114C125.224 322.184 125.154 322.254 125.061 322.278L121.318 323.073H121.271ZM123.54 320.898L121.996 322.442L124.523 321.904L123.54 320.898Z" fill="#FF6C37"/>
<path d="M124.991 322.044L122.418 322.605C122.23 322.652 122.043 322.535 121.996 322.348C121.973 322.231 121.996 322.114 122.09 322.021L123.517 320.594L124.991 322.044Z" fill="#EEEEEE"/>
<path d="M122.371 322.839C122.294 322.84 122.217 322.825 122.146 322.796C122.075 322.767 122.01 322.724 121.955 322.67C121.901 322.615 121.858 322.551 121.829 322.479C121.8 322.408 121.785 322.332 121.786 322.254C121.786 322.091 121.856 321.95 121.95 321.834L123.377 320.407C123.398 320.384 123.423 320.367 123.451 320.355C123.479 320.343 123.51 320.336 123.54 320.336C123.571 320.336 123.601 320.343 123.629 320.355C123.658 320.367 123.683 320.384 123.704 320.407L125.178 321.88C125.248 321.95 125.271 322.021 125.248 322.114C125.224 322.184 125.154 322.255 125.061 322.278L122.488 322.839H122.371ZM123.54 320.898L122.277 322.161C122.23 322.208 122.23 322.255 122.254 322.301C122.277 322.348 122.324 322.371 122.394 322.371L124.546 321.904L123.54 320.898ZM139.33 308.149C139.283 308.009 139.119 307.939 138.979 307.986C138.838 308.032 138.768 308.196 138.815 308.336C138.815 308.36 138.838 308.383 138.838 308.406C138.979 308.687 138.932 309.038 138.745 309.295C138.651 309.413 138.675 309.576 138.768 309.67C138.885 309.763 139.049 309.74 139.143 309.623C139.494 309.178 139.564 308.617 139.33 308.149Z" fill="#FF6C37"/>
</g>
<defs>
<linearGradient id="paint0_linear_0_66" x1="399.592" y1="143.889" x2="424.125" y2="117.789" gradientUnits="userSpaceOnUse">
<stop stop-color="#DF1C84"/>
<stop offset="0.401" stop-color="#DE1C85"/>
<stop offset="0.77" stop-color="#932C86"/>
<stop offset="1" stop-color="#5C2F87"/>
</linearGradient>
<radialGradient id="paint1_radial_0_66" cx="0" cy="0" r="1" gradientUnits="userSpaceOnUse" gradientTransform="translate(426.596 110.865) rotate(0.136224) scale(23.9703 20.0437)">
<stop stop-color="#DF1C84"/>
<stop offset="0.139" stop-color="#DE1E85"/>
<stop offset="0.285" stop-color="#D62085"/>
<stop offset="0.434" stop-color="#C82286"/>
<stop offset="0.586" stop-color="#B72786"/>
<stop offset="0.739" stop-color="#9C2A86"/>
<stop offset="0.891" stop-color="#7C2E87"/>
<stop offset="1" stop-color="#5C2F87"/>
</radialGradient>
<linearGradient id="paint2_linear_0_66" x1="405.451" y1="107.343" x2="416.129" y2="107.343" gradientUnits="userSpaceOnUse">
<stop stop-color="#DF1C84"/>
<stop offset="0.238" stop-color="#D91E85"/>
<stop offset="0.658" stop-color="#C72085"/>
<stop offset="0.999" stop-color="#B42184"/>
</linearGradient>
<clipPath id="clip0_0_66">
<rect width="50" height="50" fill="white" transform="translate(0 98)"/>
</clipPath>
<clipPath id="clip1_0_66">
<rect width="50" height="50" fill="white" transform="translate(196 98)"/>
</clipPath>
<clipPath id="clip2_0_66">
<rect width="50" height="50" fill="white" transform="translate(294 98)"/>
</clipPath>
<clipPath id="clip3_0_66">
<rect width="50" height="50" fill="white" transform="translate(98 196)"/>
</clipPath>
<clipPath id="clip4_0_66">
<rect width="50" height="50" fill="white" transform="translate(0 294)"/>
</clipPath>
<clipPath id="clip5_0_66">
<rect width="50" height="50" fill="white" transform="translate(0 196)"/>
</clipPath>
<clipPath id="clip6_0_66">
<rect width="50" height="50" fill="white" transform="translate(196 196)"/>
</clipPath>
<clipPath id="clip7_0_66">
<rect width="50" height="50" fill="white"/>
</clipPath>
<clipPath id="clip8_0_66">
<rect width="50" height="50" fill="white" transform="translate(98)"/>
</clipPath>
<clipPath id="clip9_0_66">
<rect width="50" height="50" fill="white" transform="translate(392 98)"/>
</clipPath>
<clipPath id="clip10_0_66">
<rect width="50" height="50" fill="white" transform="translate(101 294)"/>
</clipPath>
</defs>
</svg>
